<svg width="103" height="44" viewBox="0 0 103 44" fill="none" xmlns="http://www.w3.org/2000/svg">
<path d="M5.65673 27.21C4.64873 27.21 3.79006 26.9907 3.08073 26.552C2.37139 26.1087 1.82773 25.4927 1.44973 24.704C1.07639 23.9153 0.889727 23.0007 0.889727 21.96C0.889727 20.9193 1.07639 20.0047 1.44973 19.216C1.82773 18.4273 2.37139 17.8137 3.08073 17.375C3.79006 16.9317 4.64873 16.71 5.65673 16.71C6.81873 16.71 7.78006 17.004 8.54073 17.592C9.30606 18.18 9.83806 18.971 10.1367 19.965L8.65273 20.364C8.45673 19.6593 8.10673 19.1063 7.60273 18.705C7.10339 18.3037 6.45473 18.103 5.65673 18.103C4.94273 18.103 4.34773 18.264 3.87173 18.586C3.39573 18.908 3.03639 19.3583 2.79373 19.937C2.55573 20.5157 2.43673 21.19 2.43673 21.96C2.43206 22.73 2.54873 23.4043 2.78673 23.983C3.02939 24.5617 3.38873 25.012 3.86473 25.334C4.34539 25.656 4.94273 25.817 5.65673 25.817C6.45473 25.817 7.10339 25.6163 7.60273 25.215C8.10673 24.809 8.45673 24.256 8.65273 23.556L10.1367 23.955C9.83806 24.949 9.30606 25.74 8.54073 26.328C7.78006 26.916 6.81873 27.21 5.65673 27.21ZM14.9593 27.21C14.2033 27.21 13.5476 27.0397 12.9923 26.699C12.437 26.3583 12.0076 25.8893 11.7043 25.292C11.4056 24.69 11.2563 23.997 11.2563 23.213C11.2563 22.4243 11.4103 21.7313 11.7183 21.134C12.0263 20.532 12.458 20.0653 13.0133 19.734C13.5686 19.398 14.2173 19.23 14.9593 19.23C15.7153 19.23 16.371 19.4003 16.9263 19.741C17.4816 20.0817 17.911 20.5507 18.2143 21.148C18.5176 21.7453 18.6693 22.4337 18.6693 23.213C18.6693 24.0017 18.5153 24.697 18.2073 25.299C17.904 25.8963 17.4746 26.3653 16.9193 26.706C16.364 27.042 15.7106 27.21 14.9593 27.21ZM14.9593 25.831C15.6826 25.831 16.2216 25.5883 16.5763 25.103C16.9356 24.613 17.1153 23.983 17.1153 23.213C17.1153 22.4243 16.9333 21.7943 16.5693 21.323C16.21 20.847 15.6733 20.609 14.9593 20.609C14.4693 20.609 14.0656 20.721 13.7483 20.945C13.431 21.1643 13.1953 21.47 13.0413 21.862C12.8873 22.2493 12.8103 22.6997 12.8103 23.213C12.8103 24.0063 12.9923 24.641 13.3563 25.117C13.7203 25.593 14.2546 25.831 14.9593 25.831ZM25.5135 27V23.283C25.5135 22.989 25.4879 22.688 25.4365 22.38C25.3899 22.0673 25.2965 21.778 25.1565 21.512C25.0212 21.246 24.8275 21.0313 24.5755 20.868C24.3282 20.7047 24.0039 20.623 23.6025 20.623C23.3412 20.623 23.0939 20.6673 22.8605 20.756C22.6272 20.84 22.4219 20.9777 22.2445 21.169C22.0719 21.3603 21.9342 21.6123 21.8315 21.925C21.7335 22.2377 21.6845 22.618 21.6845 23.066L20.7745 22.723C20.7745 22.037 20.9029 21.4327 21.1595 20.91C21.4162 20.3827 21.7849 19.972 22.2655 19.678C22.7462 19.384 23.3272 19.237 24.0085 19.237C24.5312 19.237 24.9699 19.321 25.3245 19.489C25.6792 19.657 25.9662 19.8787 26.1855 20.154C26.4095 20.4247 26.5799 20.721 26.6965 21.043C26.8132 21.365 26.8925 21.68 26.9345 21.988C26.9765 22.296 26.9975 22.5667 26.9975 22.8V27H25.5135ZM20.2005 27V19.44H21.5095V21.624H21.6845V27H20.2005ZM33.1468 27C32.6708 27.0933 32.2042 27.133 31.7468 27.119C31.2895 27.105 30.8812 27.0163 30.5218 26.853C30.1625 26.6897 29.8918 26.433 29.7098 26.083C29.5465 25.7703 29.4578 25.453 29.4438 25.131C29.4345 24.8043 29.4298 24.4357 29.4298 24.025V17.34H30.8998V23.955C30.8998 24.2583 30.9022 24.522 30.9068 24.746C30.9162 24.97 30.9652 25.159 31.0538 25.313C31.2218 25.6023 31.4878 25.768 31.8518 25.81C32.2205 25.8473 32.6522 25.831 33.1468 25.761V27ZM27.9808 20.616V19.44H33.1468V20.616H27.9808ZM36.8757 27.21C36.3157 27.21 35.8467 27.1073 35.4687 26.902C35.0907 26.692 34.8037 26.4167 34.6077 26.076C34.4164 25.7307 34.3207 25.3527 34.3207 24.942C34.3207 24.5593 34.3884 24.2233 34.5237 23.934C34.6591 23.6447 34.8597 23.3997 35.1257 23.199C35.3917 22.9937 35.7184 22.828 36.1057 22.702C36.4417 22.604 36.8221 22.5177 37.2467 22.443C37.6714 22.3683 38.1171 22.2983 38.5837 22.233C39.0551 22.1677 39.5217 22.1023 39.9837 22.037L39.4517 22.331C39.4611 21.7383 39.3351 21.2997 39.0737 21.015C38.8171 20.7257 38.3737 20.581 37.7437 20.581C37.3471 20.581 36.9831 20.6743 36.6517 20.861C36.3204 21.043 36.0894 21.3463 35.9587 21.771L34.5937 21.351C34.7804 20.7023 35.1351 20.1867 35.6577 19.804C36.1851 19.4213 36.8851 19.23 37.7577 19.23C38.4344 19.23 39.0224 19.3467 39.5217 19.58C40.0257 19.8087 40.3944 20.1727 40.6277 20.672C40.7491 20.9193 40.8237 21.1807 40.8517 21.456C40.8797 21.7313 40.8937 22.0277 40.8937 22.345V27H39.5987V25.271L39.8507 25.495C39.5381 26.0737 39.1391 26.5053 38.6537 26.79C38.1731 27.07 37.5804 27.21 36.8757 27.21ZM37.1347 26.013C37.5501 26.013 37.9071 25.9407 38.2057 25.796C38.5044 25.6467 38.7447 25.4577 38.9267 25.229C39.1087 25.0003 39.2277 24.7623 39.2837 24.515C39.3631 24.291 39.4074 24.039 39.4167 23.759C39.4307 23.479 39.4377 23.255 39.4377 23.087L39.9137 23.262C39.4517 23.332 39.0317 23.395 38.6537 23.451C38.2757 23.507 37.9327 23.563 37.6247 23.619C37.3214 23.6703 37.0507 23.7333 36.8127 23.808C36.6121 23.878 36.4324 23.962 36.2737 24.06C36.1197 24.158 35.9961 24.277 35.9027 24.417C35.8141 24.557 35.7697 24.7273 35.7697 24.928C35.7697 25.124 35.8187 25.306 35.9167 25.474C36.0147 25.6373 36.1641 25.768 36.3647 25.866C36.5654 25.964 36.8221 26.013 37.1347 26.013ZM45.9454 27.21C45.1708 27.21 44.5128 27.0373 43.9714 26.692C43.4301 26.3467 43.0148 25.873 42.7254 25.271C42.4408 24.669 42.2961 23.9853 42.2914 23.22C42.2961 22.4407 42.4454 21.7523 42.7394 21.155C43.0334 20.553 43.4534 20.0817 43.9994 19.741C44.5454 19.4003 45.2011 19.23 45.9664 19.23C46.7924 19.23 47.4971 19.4353 48.0804 19.846C48.6684 20.2567 49.0558 20.819 49.2424 21.533L47.7864 21.953C47.6418 21.5283 47.4038 21.1993 47.0724 20.966C46.7458 20.728 46.3701 20.609 45.9454 20.609C45.4648 20.609 45.0704 20.7233 44.7624 20.952C44.4544 21.176 44.2258 21.484 44.0764 21.876C43.9271 22.268 43.8501 22.716 43.8454 23.22C43.8501 23.9993 44.0274 24.6293 44.3774 25.11C44.7321 25.5907 45.2548 25.831 45.9454 25.831C46.4168 25.831 46.7971 25.7237 47.0864 25.509C47.3804 25.2897 47.6044 24.977 47.7584 24.571L49.2424 24.921C48.9951 25.6583 48.5868 26.2253 48.0174 26.622C47.4481 27.014 46.7574 27.21 45.9454 27.21ZM54.9945 27C54.5185 27.0933 54.0518 27.133 53.5945 27.119C53.1371 27.105 52.7288 27.0163 52.3695 26.853C52.0101 26.6897 51.7395 26.433 51.5575 26.083C51.3941 25.7703 51.3055 25.453 51.2915 25.131C51.2821 24.8043 51.2775 24.4357 51.2775 24.025V17.34H52.7475V23.955C52.7475 24.2583 52.7498 24.522 52.7545 24.746C52.7638 24.97 52.8128 25.159 52.9015 25.313C53.0695 25.6023 53.3355 25.768 53.6995 25.81C54.0681 25.8473 54.4998 25.831 54.9945 25.761V27ZM49.8285 20.616V19.44H54.9945V20.616H49.8285ZM62.2401 27.203C61.7175 27.203 61.2788 27.119 60.9241 26.951C60.5695 26.783 60.2801 26.5637 60.0561 26.293C59.8368 26.0177 59.6688 25.719 59.5521 25.397C59.4355 25.075 59.3561 24.76 59.3141 24.452C59.2721 24.144 59.2511 23.8733 59.2511 23.64V19.44H60.7351V23.157C60.7351 23.451 60.7585 23.7543 60.8051 24.067C60.8565 24.375 60.9498 24.662 61.0851 24.928C61.2251 25.194 61.4188 25.4087 61.6661 25.572C61.9181 25.7353 62.2448 25.817 62.6461 25.817C62.9075 25.817 63.1548 25.775 63.3881 25.691C63.6215 25.6023 63.8245 25.4623 63.9971 25.271C64.1745 25.0797 64.3121 24.8277 64.4101 24.515C64.5128 24.2023 64.5641 23.822 64.5641 23.374L65.4741 23.717C65.4741 24.403 65.3458 25.0097 65.0891 25.537C64.8325 26.0597 64.4638 26.468 63.9831 26.762C63.5025 27.056 62.9215 27.203 62.2401 27.203ZM64.7391 27V24.816H64.5641V19.44H66.0411V27H64.7391ZM70.8954 27.203C69.9761 27.203 69.2271 27 68.6484 26.594C68.0697 26.188 67.7151 25.6163 67.5844 24.879L69.0824 24.648C69.1757 25.04 69.3904 25.3503 69.7264 25.579C70.0671 25.803 70.4894 25.915 70.9934 25.915C71.4507 25.915 71.8077 25.8217 72.0644 25.635C72.3257 25.4483 72.4564 25.1917 72.4564 24.865C72.4564 24.6737 72.4097 24.5197 72.3164 24.403C72.2277 24.2817 72.0387 24.1673 71.7494 24.06C71.4601 23.9527 71.0191 23.8197 70.4264 23.661C69.7777 23.493 69.2621 23.3133 68.8794 23.122C68.5014 22.926 68.2307 22.6997 68.0674 22.443C67.9087 22.1817 67.8294 21.8667 67.8294 21.498C67.8294 21.0407 67.9507 20.6417 68.1934 20.301C68.4361 19.9603 68.7767 19.6967 69.2154 19.51C69.6587 19.3233 70.1767 19.23 70.7694 19.23C71.3481 19.23 71.8637 19.321 72.3164 19.503C72.7691 19.685 73.1354 19.944 73.4154 20.28C73.6954 20.6113 73.8634 21.001 73.9194 21.449L72.4214 21.722C72.3701 21.358 72.1997 21.071 71.9104 20.861C71.6211 20.651 71.2454 20.5367 70.7834 20.518C70.3401 20.4993 69.9807 20.574 69.7054 20.742C69.4301 20.9053 69.2924 21.1317 69.2924 21.421C69.2924 21.589 69.3437 21.7313 69.4464 21.848C69.5537 21.9647 69.7591 22.0767 70.0624 22.184C70.3657 22.2913 70.8137 22.4197 71.4064 22.569C72.0411 22.7323 72.5451 22.9143 72.9184 23.115C73.2917 23.311 73.5577 23.5467 73.7164 23.822C73.8797 24.0927 73.9614 24.4217 73.9614 24.809C73.9614 25.5557 73.6884 26.1413 73.1424 26.566C72.6011 26.9907 71.8521 27.203 70.8954 27.203Z" fill="#6366F1"/>
<path d="M92.4108 26.4108L93.5892 27.5892L99.1783 22L93.5892 16.4108L92.4108 17.5892L95.9883 21.1667H88V22.8333H95.9883L92.4108 26.4108Z" fill="#6366F1"/>
</svg>
