<svg width="105" height="25" viewBox="0 0 105 25" fill="none" xmlns="http://www.w3.org/2000/svg">
<g clip-path="url(#clip0_20005129_217)">
<g clip-path="url(#clip1_20005129_217)">
<g clip-path="url(#clip2_20005129_217)">
<path d="M34.1638 3.06997C34.1638 3.83747 33.9336 4.37472 33.4731 4.83522C32.9358 5.37247 32.3218 5.60272 31.4776 5.60272C30.7101 5.60272 30.0193 5.37247 29.4821 4.83522C28.9448 4.29797 28.6378 3.68397 28.6378 2.91647C28.6378 2.14897 28.9448 1.45822 29.4821 0.997725C30.0193 0.460475 30.7101 0.230225 31.4776 0.230225C31.8613 0.230225 32.2451 0.306975 32.5521 0.460475C32.9358 0.613975 33.1661 0.767475 33.3963 1.07447L33.0126 1.38147C32.6288 0.920975 32.1683 0.767475 31.5543 0.767475C31.0171 0.767475 30.4798 0.997725 30.0961 1.38147C29.7123 1.76522 29.4821 2.30247 29.4821 2.91647C29.4821 3.53047 29.7123 4.06772 30.0961 4.45147C30.4798 4.83522 31.0171 5.06547 31.5543 5.06547C32.1683 5.06547 32.6288 4.83522 33.0893 4.45147C33.3196 4.22122 33.4731 3.83747 33.5498 3.37697H31.6311V2.60947H34.2406C34.1638 2.76297 34.1638 2.91647 34.1638 3.06997Z" fill="white"/>
<path d="M38.3083 0.844225H35.8523V2.53272H38.078V3.14672H35.8523V4.83522H38.3083V5.44922H35.1615V0.230225H38.3083V0.844225Z" fill="white"/>
<path d="M41.2248 5.44922H40.534V0.844225H38.999V0.230225H42.683V0.844225H41.148V5.44922H41.2248Z" fill="white"/>
<path d="M45.3693 5.44922V0.230225H46.06V5.44922H45.3693Z" fill="white"/>
<path d="M49.13 5.44922H48.4393V0.844225H46.9043V0.230225H50.665V0.844225H49.13V5.44922Z" fill="white"/>
<path d="M57.6492 4.75856C57.112 5.29581 56.498 5.52606 55.6537 5.52606C54.8862 5.52606 54.1955 5.29581 53.6582 4.75856C53.121 4.22131 52.8907 3.60731 52.8907 2.83981C52.8907 2.07231 53.121 1.45831 53.6582 0.921064C54.1955 0.383814 54.8095 0.153564 55.6537 0.153564C56.4212 0.153564 57.112 0.383814 57.6492 0.921064C58.1865 1.45831 58.4167 2.07231 58.4167 2.83981C58.4167 3.60731 58.1865 4.22131 57.6492 4.75856ZM54.1955 4.29806C54.5792 4.68181 55.1165 4.91206 55.6537 4.91206C56.191 4.91206 56.7282 4.68181 57.112 4.29806C57.4957 3.91431 57.726 3.37706 57.726 2.76306C57.726 2.14906 57.4957 1.61181 57.112 1.22806C56.7282 0.844314 56.191 0.614064 55.6537 0.614064C55.0397 0.614064 54.5792 0.844314 54.1955 1.22806C53.8117 1.61181 53.5815 2.14906 53.5815 2.76306C53.5815 3.45381 53.8117 3.91431 54.1955 4.29806Z" fill="white"/>
<path d="M59.4146 5.44922V0.230225H60.2588L62.8683 4.29797V3.30022V0.230225H63.5591V5.44922H62.8683L60.1053 1.15122V2.14897V5.44922H59.4146Z" fill="white"/>
<path d="M52.7373 13.1242C50.665 13.1242 48.8998 14.6592 48.8998 16.8082C48.8998 18.9572 50.5883 20.4922 52.7373 20.4922C54.8095 20.4922 56.5748 18.8805 56.5748 16.8082C56.5748 14.6592 54.8095 13.1242 52.7373 13.1242ZM52.7373 19.1107C51.586 19.1107 50.5883 18.1897 50.5883 16.885C50.5883 15.5802 51.586 14.6592 52.7373 14.6592C53.8885 14.6592 54.8863 15.5802 54.8863 16.885C54.8863 18.113 53.8885 19.1107 52.7373 19.1107ZM44.3715 13.1242C42.2993 13.1242 40.534 14.6592 40.534 16.8082C40.534 18.9572 42.2225 20.4922 44.3715 20.4922C46.4438 20.4922 48.209 18.8805 48.209 16.8082C48.209 14.6592 46.5205 13.1242 44.3715 13.1242ZM44.3715 19.1107C43.2203 19.1107 42.2225 18.1897 42.2225 16.885C42.2225 15.5802 43.2203 14.6592 44.3715 14.6592C45.5228 14.6592 46.5205 15.5802 46.5205 16.885C46.5205 18.113 45.5228 19.1107 44.3715 19.1107ZM34.4708 14.2755V15.8872H38.3083C38.2315 16.8082 37.9245 17.4222 37.464 17.8827C36.9268 18.42 36.0058 19.034 34.4708 19.034C32.0915 19.034 30.2495 17.192 30.2495 14.8127C30.2495 12.4335 32.0915 10.5915 34.4708 10.5915C35.7755 10.5915 36.6965 11.052 37.3873 11.7427L38.5385 10.5915C37.5408 9.67049 36.3128 8.97974 34.4708 8.97974C31.1705 8.97974 28.4843 11.5892 28.4843 14.736C28.4843 17.8827 31.2473 20.4922 34.4708 20.4922C36.236 20.4922 37.5408 19.955 38.6153 18.8805C39.6898 17.806 39.9968 16.3477 39.9968 15.1965C39.9968 14.8127 39.9968 14.5057 39.92 14.1987H34.4708V14.2755ZM75.0715 15.5035C74.7645 14.6592 73.7668 13.1242 71.7713 13.1242C69.7758 13.1242 68.164 14.6592 68.164 16.8082C68.164 18.8805 69.7757 20.4922 71.9248 20.4922C73.69 20.4922 74.6878 19.4177 75.0715 18.8805L73.7668 18.0362C73.3063 18.6502 72.769 19.034 71.9248 19.034C71.0805 19.034 70.4665 18.6502 70.0828 17.8827L75.1483 15.8105L75.0715 15.5035ZM69.8525 16.7315C69.7758 15.2732 71.0038 14.5825 71.848 14.5825C72.5388 14.5825 73.076 14.8895 73.2295 15.35L69.8525 16.7315ZM65.708 20.3387H67.3965V9.36349H65.708V20.3387ZM62.945 13.9685C62.4845 13.508 61.7938 13.1242 60.8728 13.1242C58.954 13.1242 57.1888 14.736 57.1888 16.885C57.1888 18.9572 58.954 20.569 60.8728 20.569C61.7938 20.569 62.4845 20.1852 62.8683 19.7247H62.945V20.262C62.945 21.7202 62.1775 22.411 60.9495 22.411C59.9518 22.411 59.261 21.7202 59.0308 21.1062L57.5725 21.6435C57.9563 22.6412 59.1075 23.8692 60.9495 23.8692C62.945 23.8692 64.5568 22.718 64.5568 20.0317V13.3545H62.945V13.9685ZM61.0263 19.1107C59.875 19.1107 58.8773 18.1897 58.8773 16.885C58.8773 15.5802 59.875 14.5825 61.0263 14.5825C62.1775 14.5825 63.0985 15.5035 63.0985 16.885C63.0985 18.113 62.1775 19.1107 61.0263 19.1107ZM82.9 9.36349H78.909V20.262H80.5975V16.1175H82.9C84.742 16.1175 86.584 14.8127 86.584 12.7405C86.584 10.6682 84.742 9.36349 82.9 9.36349ZM82.9 14.6592H80.5208V10.8985H82.9C84.128 10.8985 84.8955 11.8962 84.8955 12.7405C84.8955 13.6615 84.2048 14.6592 82.9 14.6592ZM93.2613 13.0475C92.0333 13.0475 90.8053 13.5847 90.268 14.736L91.7263 15.35C92.0333 14.736 92.6473 14.5825 93.2613 14.5825C94.1055 14.5825 95.0265 15.1197 95.0265 15.964V16.1175C94.7195 15.964 94.1055 15.657 93.2613 15.657C91.6495 15.657 90.0378 16.5012 90.0378 18.113C90.0378 19.5712 91.3425 20.4922 92.8008 20.4922C93.952 20.4922 94.566 20.0317 94.9498 19.4177H95.0265V20.262H96.6383V16.1175C96.6383 14.1987 95.18 13.0475 93.2613 13.0475ZM93.031 19.1107C92.4938 19.1107 91.7263 18.8805 91.7263 18.1897C91.7263 17.3455 92.6473 17.0385 93.4915 17.0385C94.259 17.0385 94.566 17.192 95.0265 17.4222C94.873 18.3432 94.0287 19.1107 93.031 19.1107ZM102.548 13.3545L100.629 18.113H100.553L98.557 13.3545H96.7917L99.785 19.955L98.0965 23.639H99.8618L104.467 13.3545H102.548ZM87.505 20.3387H89.1935V9.36349H87.505V20.3387Z" fill="white"/>
<path d="M0.39376 0.690674C0.16351 0.920924 0.0100098 1.38142 0.0100098 1.91867V21.2597C0.0100098 21.7969 0.16351 22.2574 0.39376 22.4877L0.47051 22.5644L11.5993 11.7427V11.5124L0.39376 0.690674Z" fill="url(#paint0_linear_20005129_217)"/>
<path d="M15.2832 15.2734L11.5992 11.6661V11.4359L15.2832 7.82861L15.36 7.90536L19.7347 10.3614C20.9627 11.0521 20.9627 12.2034 19.7347 12.8941L15.36 15.2734H15.2832Z" fill="url(#paint1_linear_20005129_217)"/>
<path d="M15.36 15.2734L11.5993 11.5894L0.393799 22.4879C0.854299 22.8716 1.54505 22.9484 2.31255 22.4879L15.36 15.2734Z" fill="url(#paint2_linear_20005129_217)"/>
<path d="M15.36 7.90533L2.31255 0.614079C1.54505 0.230329 0.854299 0.230329 0.393799 0.690829L11.5225 11.5893L15.36 7.90533Z" fill="url(#paint3_linear_20005129_217)"/>
</g>
</g>
</g>
<defs>
<linearGradient id="paint0_linear_20005129_217" x1="10.4935" y1="21.5519" x2="-4.17808" y2="6.52475" gradientUnits="userSpaceOnUse">
<stop stop-color="#00A0FF"/>
<stop offset="0.0066" stop-color="#00A1FF"/>
<stop offset="0.2601" stop-color="#00BEFF"/>
<stop offset="0.5122" stop-color="#00D2FF"/>
<stop offset="0.7604" stop-color="#00DFFF"/>
<stop offset="1" stop-color="#00E3FF"/>
</linearGradient>
<linearGradient id="paint1_linear_20005129_217" x1="21.3828" y1="11.5706" x2="-0.289563" y2="11.5706" gradientUnits="userSpaceOnUse">
<stop stop-color="#FFE000"/>
<stop offset="0.4087" stop-color="#FFBD00"/>
<stop offset="0.7754" stop-color="#FFA500"/>
<stop offset="1" stop-color="#FF9C00"/>
</linearGradient>
<linearGradient id="paint2_linear_20005129_217" x1="5.89048" y1="16.812" x2="-14.0054" y2="-3.56601" gradientUnits="userSpaceOnUse">
<stop stop-color="#FF3A44"/>
<stop offset="1" stop-color="#C31162"/>
</linearGradient>
<linearGradient id="paint3_linear_20005129_217" x1="-9.43258" y1="22.0264" x2="-0.548154" y2="12.9268" gradientUnits="userSpaceOnUse">
<stop stop-color="#32A071"/>
<stop offset="0.0685" stop-color="#2DA771"/>
<stop offset="0.4762" stop-color="#15CF74"/>
<stop offset="0.8009" stop-color="#06E775"/>
<stop offset="1" stop-color="#00F076"/>
</linearGradient>
<clipPath id="clip0_20005129_217">
<rect width="104.4" height="24.56" fill="white"/>
</clipPath>
<clipPath id="clip1_20005129_217">
<rect width="104.4" height="24.56" fill="white"/>
</clipPath>
<clipPath id="clip2_20005129_217">
<rect width="104.38" height="24.56" fill="white" transform="translate(0.0100098)"/>
</clipPath>
</defs>
</svg>
