<svg width="706" height="99" viewBox="0 0 706 99" fill="none" xmlns="http://www.w3.org/2000/svg">
<rect x="0.5" y="0.5" width="157.5" height="97.54" rx="7.5" fill="white"/>
<rect x="0.5" y="0.5" width="157.5" height="97.54" rx="7.5" stroke="#E2E5F1"/>
<g clip-path="url(#clip0_20005249_168)">
<g clip-path="url(#clip1_20005249_168)">
<path d="M27.9222 60.9813H51.3446V37.559H27.9222V60.9813ZM46.9529 46.9828H42.0122V42.0421H46.9529V46.9828ZM32.4969 42.0421H37.4376V51.5575H46.9529V56.4981H32.4969V42.0421ZM66.7155 37.559C64.4282 37.559 62.1408 38.2909 60.2195 39.5718C58.2981 40.8527 56.7427 42.6826 55.9193 44.8784C55.0043 46.9828 54.8213 49.3616 55.2788 51.649C55.7363 53.9363 56.8342 56.0406 58.4811 57.6875C60.128 59.3344 62.2323 60.4323 64.5196 60.8898C66.807 61.3473 69.1858 61.0728 71.2902 60.2493C73.4173 59.3255 75.2521 57.8387 76.5968 55.9492C77.8777 54.0278 78.6096 51.7405 78.6096 49.4531C78.6096 46.3423 77.3287 43.3231 75.1329 41.1272C72.8456 38.7484 69.8263 37.559 66.7155 37.559ZM66.7155 56.4981C65.2516 56.4981 63.8792 56.0406 62.6898 55.3087C61.5004 54.4853 60.5854 53.3873 60.0365 52.1064C59.4875 50.8255 59.3045 49.3616 59.6705 47.8977C59.945 46.5253 60.6769 45.2444 61.6833 44.238C62.6898 43.2316 63.9707 42.4996 65.3431 42.2251C66.7155 41.9506 68.1794 42.1336 69.5518 42.5911C70.8327 43.1401 72.0221 44.055 72.7541 45.2444C73.5775 46.4338 73.9435 47.8062 73.9435 49.2701C73.9435 51.1915 73.2115 53.0214 71.8391 54.3938C70.4667 55.7662 68.6369 56.4981 66.7155 56.4981ZM120.422 37.559C118.135 37.559 115.847 38.2909 113.926 39.5718C112.005 40.8527 110.449 42.6826 109.626 44.8784C108.711 46.9828 108.528 49.3616 108.985 51.649C109.443 53.9363 110.541 56.0406 112.188 57.6875C113.835 59.3344 115.939 60.4323 118.226 60.8898C120.514 61.3473 122.893 61.0728 124.997 60.2493C127.124 59.3255 128.959 57.8387 130.303 55.9492C131.584 54.0278 132.316 51.7405 132.316 49.4531C132.316 46.3423 131.035 43.3231 128.84 41.1272C126.552 38.7484 123.533 37.559 120.422 37.559ZM120.422 56.4981C118.958 56.4981 117.586 56.0406 116.396 55.3087C115.207 54.4853 114.292 53.3873 113.743 52.1064C113.194 50.8255 113.011 49.3616 113.377 47.8977C113.652 46.5253 114.384 45.2444 115.39 44.238C116.396 43.2316 117.677 42.4996 119.05 42.2251C120.422 41.9506 121.886 42.1336 123.258 42.5911C124.539 43.1401 125.729 44.055 126.461 45.2444C127.284 46.4338 127.65 47.8062 127.65 49.2701C127.65 51.1915 126.918 53.0214 125.546 54.3938C124.173 55.7662 122.344 56.4981 120.422 56.4981ZM93.6146 37.559C91.3272 37.559 89.0399 38.2909 87.1185 39.5718C85.1972 40.8527 83.6418 42.6826 82.8183 44.8784C81.9034 46.9828 81.7204 49.3616 82.1779 51.649C82.6354 53.9363 83.7333 56.0406 85.3802 57.6875C87.027 59.3344 89.1314 60.4323 91.4187 60.8898C93.7061 61.3473 96.0849 61.0728 98.1892 60.2493C100.316 59.3255 102.151 57.8387 103.496 55.9492C104.777 54.0278 105.509 51.7405 105.509 49.4531C105.509 46.3423 104.228 43.3231 102.032 41.1272C99.6532 38.7484 96.7253 37.559 93.6146 37.559ZM93.6146 56.4981C92.2422 56.4981 90.9613 56.1321 89.8633 55.4002C88.7654 54.6682 87.8505 53.7533 87.21 52.5639C86.5696 51.3745 86.2951 50.0936 86.4781 48.7212C86.5696 47.4403 87.027 46.1593 87.8505 45.0614C88.6739 43.9635 89.6804 43.1401 90.9613 42.5911C92.1507 42.0421 93.5231 41.9506 94.804 42.1336C96.0849 42.3166 97.3658 42.8656 98.3722 43.7805C99.3787 44.604 100.111 45.7934 100.568 46.9828H93.7061V51.466H100.568C100.111 52.9299 99.1957 54.1193 97.9148 55.0342C96.5424 56.0406 95.0785 56.4981 93.6146 56.4981Z" fill="#B4B7C9"/>
</g>
</g>
<rect x="183" y="0.5" width="157.5" height="97.54" rx="7.5" fill="white"/>
<rect x="183" y="0.5" width="157.5" height="97.54" rx="7.5" stroke="#E2E5F1"/>
<g clip-path="url(#clip2_20005249_168)">
<g clip-path="url(#clip3_20005249_168)">
<path d="M218.199 47.8061C217.833 48.1721 217.559 48.5381 217.376 48.9956C217.193 49.453 217.193 49.9105 217.193 50.4595C217.284 51.0084 217.193 51.6489 217.01 52.1978C216.827 52.7468 216.461 53.2043 216.095 53.6617C215.729 54.0277 215.18 54.3937 214.631 54.5767C214.082 54.7597 213.533 54.8511 212.893 54.7597C212.161 54.6682 211.52 54.8511 210.88 55.2171C210.239 55.5831 209.782 56.0406 209.507 56.681C209.238 57.3154 209.143 58.0104 209.233 58.6939C209.324 59.3343 209.69 59.9748 210.148 60.5237C210.605 60.9812 211.246 61.3472 211.978 61.4387C212.661 61.5285 213.356 61.4337 213.99 61.1642C214.631 60.8897 215.18 60.4323 215.454 59.7918C215.729 59.1513 215.912 58.5109 215.912 57.7789C215.82 57.23 215.912 56.5895 216.095 56.0406C216.278 55.4916 216.644 55.0341 217.01 54.5767C217.376 54.2107 217.925 53.8447 218.474 53.6617C219.023 53.4787 219.572 53.3873 220.212 53.4787C220.761 53.5702 221.31 53.4787 221.859 53.2043C222.408 53.0213 222.865 52.6553 223.14 52.1978C223.506 51.7404 223.689 51.1914 223.78 50.6424C223.872 50.0935 223.78 49.5445 223.597 48.9956C223.414 48.4466 223.048 47.9891 222.682 47.6232C222.225 47.2572 221.767 46.9827 221.218 46.8912C220.669 46.7997 220.121 46.7997 219.572 46.9827C219.114 47.0742 218.657 47.3487 218.199 47.8061ZM211.429 52.5638C211.886 52.5638 212.435 52.5638 212.893 52.3808C213.35 52.1978 213.807 51.9234 214.082 51.5574C214.448 51.1914 214.722 50.8254 214.905 50.368C215.088 49.9105 215.088 49.453 215.088 48.9041C214.997 48.3551 215.088 47.7147 215.271 47.1657C215.454 46.6167 215.82 46.1593 216.186 45.7018C216.552 45.3358 217.101 44.9698 217.65 44.7869C218.199 44.6039 218.748 44.5124 219.389 44.6039C220.121 44.6954 220.761 44.5124 221.401 44.1464C222.042 43.7804 222.499 43.323 222.774 42.6825C223.043 42.0481 223.138 41.3531 223.048 40.6697C222.957 40.0292 222.591 39.3887 222.133 38.8398C221.676 38.3823 221.035 38.0163 220.304 37.9248C219.62 37.835 218.925 37.9298 218.291 38.1993C217.65 38.4738 217.101 38.9313 216.827 39.5717C216.461 40.2122 216.369 40.8526 216.369 41.5846C216.461 42.1335 216.369 42.774 216.186 43.323C216.003 43.8719 215.637 44.3294 215.271 44.7869C214.905 45.1528 214.356 45.5188 213.807 45.7018C213.259 45.8848 212.71 45.9763 212.069 45.8848C211.612 45.7933 211.063 45.8848 210.605 46.0678C210.148 46.2508 209.69 46.5252 209.416 46.8912C209.05 47.2572 208.775 47.6232 208.592 48.0806C208.409 48.5381 208.409 48.9956 208.409 49.5445C208.501 50.0935 208.409 50.7339 208.226 51.2829C208.043 51.8319 207.677 52.2893 207.311 52.7468C206.945 53.1128 206.396 53.4787 205.848 53.6617C205.299 53.7532 204.658 53.8447 204.109 53.8447C203.377 53.7532 202.737 53.9362 202.096 54.3022C201.456 54.6682 200.998 55.1256 200.724 55.7661C200.454 56.4005 200.36 57.0955 200.449 57.7789C200.541 58.4194 200.907 59.0598 201.364 59.6088C201.822 60.0663 202.462 60.4323 203.194 60.5237C203.878 60.6136 204.573 60.5188 205.207 60.2493C205.848 59.9748 206.396 59.5173 206.671 58.8769C207.037 58.2364 207.128 57.596 207.128 56.864C207.037 56.315 207.128 55.6746 207.311 55.1256C207.494 54.5767 207.86 54.1192 208.226 53.6617C208.592 53.2958 209.141 52.9298 209.69 52.7468L211.429 52.5638ZM205.299 50.7339C205.665 50.368 205.939 50.002 206.031 49.5445C206.122 49.0871 206.214 48.6296 206.214 48.0806C206.122 47.5317 206.214 46.8912 206.397 46.3422C206.579 45.7933 206.945 45.3358 207.311 44.8784C207.677 44.5124 208.226 44.1464 208.775 43.9634C209.324 43.7804 209.873 43.6889 210.514 43.7804C211.246 43.8719 211.886 43.6889 212.527 43.323C213.167 42.957 213.624 42.4995 213.899 41.8591C214.168 41.2246 214.263 40.5296 214.173 39.8462C214.082 39.2058 213.716 38.5653 213.259 38.0163C212.801 37.5589 212.161 37.1929 211.429 37.1014C210.745 37.0116 210.05 37.1064 209.416 37.3759C208.775 37.6504 208.226 38.1078 207.952 38.7483C207.586 39.3887 207.494 40.0292 207.494 40.7611C207.586 41.3101 207.494 41.9506 207.311 42.4995C207.128 43.0485 206.762 43.506 206.397 43.9634C206.031 44.3294 205.482 44.6954 204.933 44.8784C204.384 45.0613 203.835 45.1528 203.194 45.0613C202.645 44.9698 202.096 45.0613 201.547 45.3358C200.998 45.5188 200.541 45.8848 200.266 46.3422C199.9 46.7997 199.717 47.3487 199.626 47.8976C199.534 48.4466 199.626 48.9956 199.809 49.5445C199.992 50.0935 200.358 50.551 200.724 50.9169C201.181 51.2829 201.639 51.5574 202.188 51.6489C202.737 51.7404 203.286 51.7404 203.835 51.5574C204.475 51.4659 204.933 51.1914 205.299 50.7339ZM233.662 41.6761H236.406V54.9426H233.662V41.6761ZM237.962 50.368C237.962 49.453 238.236 48.4466 238.785 47.7147C239.334 46.8912 240.066 46.3422 240.981 45.9763C241.896 45.6103 242.811 45.5188 243.726 45.7018C244.641 45.8848 245.556 46.3422 246.196 46.9827C246.837 47.6232 247.294 48.5381 247.477 49.453C247.66 50.368 247.569 51.3744 247.203 52.1978C246.837 53.1128 246.196 53.8447 245.464 54.3937C244.681 54.9255 243.757 55.2122 242.811 55.2171C242.17 55.2171 241.53 55.1256 240.981 54.8511C240.432 54.5767 239.883 54.3022 239.426 53.8447C238.968 53.3873 238.602 52.8383 238.419 52.2893C238.115 51.6948 237.958 51.0358 237.962 50.368ZM244.824 50.368C244.824 50.002 244.641 49.5445 244.458 49.27C244.183 48.9041 243.909 48.7211 243.543 48.5381C243.177 48.3551 242.719 48.3551 242.353 48.4466C241.987 48.5381 241.622 48.7211 241.347 48.9956C241.073 49.27 240.89 49.636 240.798 50.0935C240.707 50.4595 240.798 50.9169 240.89 51.2829C241.073 51.6489 241.347 52.0148 241.622 52.1978C241.987 52.3808 242.353 52.5638 242.811 52.5638C243.085 52.5638 243.36 52.5638 243.634 52.3808C243.909 52.2893 244.092 52.1063 244.366 51.9234C244.549 51.7404 244.732 51.4659 244.824 51.1914V50.368ZM258.365 45.7933V54.3937C258.365 57.413 255.986 58.6939 253.607 58.6939C252.784 58.7854 251.869 58.6024 251.137 58.2364C250.405 57.8704 249.764 57.23 249.307 56.498L251.594 55.1256C251.777 55.4916 252.052 55.8576 252.418 56.0406C252.789 56.2179 253.195 56.3116 253.607 56.315C253.882 56.315 254.156 56.315 254.431 56.2235C254.705 56.1321 254.888 56.0406 255.163 55.8576C255.345 55.6669 255.499 55.4512 255.62 55.2171C255.712 54.9426 255.712 54.6682 255.712 54.3937V53.5702C255.4 53.9719 254.99 54.2869 254.522 54.4852C254.065 54.6682 253.607 54.7597 253.058 54.7597C251.869 54.7597 250.771 54.2107 249.856 53.3873C249.032 52.5638 248.575 51.3744 248.575 50.185C248.575 48.9956 249.032 47.8061 249.856 46.9827C250.679 46.1593 251.777 45.6103 253.058 45.6103C253.559 45.6126 254.055 45.7056 254.522 45.8848C254.98 46.0678 255.346 46.4337 255.712 46.7997V45.8848L258.365 45.7933ZM255.712 50.185C255.712 49.7275 255.62 49.27 255.346 48.9041C255.071 48.5381 254.797 48.2636 254.339 48.0806C253.944 47.8803 253.494 47.816 253.058 47.8976C252.601 47.9891 252.235 48.1721 251.869 48.4466C251.594 48.7211 251.32 49.1785 251.228 49.5445C251.137 50.002 251.137 50.4595 251.32 50.8254C251.503 51.1914 251.777 51.5574 252.143 51.8319C252.509 52.1063 252.967 52.1978 253.333 52.1978C253.607 52.1978 253.882 52.1978 254.156 52.1063C254.431 52.0148 254.705 51.8319 254.888 51.6489C255.071 51.4659 255.254 51.1914 255.346 50.9169C255.712 50.7339 255.712 50.4595 255.712 50.185ZM259.92 50.368C259.92 49.453 260.195 48.4466 260.744 47.7147C261.293 46.8912 262.025 46.3422 262.939 45.9763C263.854 45.6103 264.769 45.5188 265.684 45.7018C266.599 45.8848 267.514 46.3422 268.155 46.9827C268.795 47.6232 269.253 48.5381 269.436 49.453C269.619 50.368 269.527 51.3744 269.161 52.1978C268.795 53.1128 268.155 53.8447 267.423 54.3937C266.64 54.9255 265.716 55.2122 264.769 55.2171C264.129 55.2171 263.488 55.1256 262.939 54.8511C262.391 54.5767 261.842 54.3022 261.384 53.8447C260.927 53.3873 260.561 52.8383 260.378 52.2893C260.073 51.6948 259.916 51.0358 259.92 50.368ZM266.782 50.368C266.782 50.002 266.599 49.5445 266.416 49.27C266.142 48.9041 265.867 48.7211 265.501 48.5381C265.135 48.3551 264.678 48.3551 264.312 48.4466C263.946 48.5381 263.58 48.7211 263.214 48.9956C262.939 49.27 262.757 49.636 262.665 50.0935C262.574 50.4595 262.665 50.9169 262.757 51.2829C262.848 51.6489 263.214 52.0148 263.488 52.1978C263.854 52.3808 264.22 52.5638 264.678 52.5638C264.952 52.5638 265.227 52.5638 265.501 52.3808C265.776 52.2893 265.959 52.1063 266.233 51.9234C266.416 51.7404 266.599 51.4659 266.691 51.1914C266.782 50.9169 266.782 50.6424 266.782 50.368ZM270.808 43.4145C270.801 43.0882 270.897 42.7679 271.082 42.4995C271.265 42.225 271.54 42.0421 271.814 41.8591C272.089 41.7676 272.455 41.6761 272.729 41.7676C273.004 41.8591 273.37 41.9506 273.553 42.225C273.736 42.408 273.919 42.774 274.01 43.0485C274.102 43.323 274.01 43.6889 273.919 43.9634C273.827 44.2379 273.553 44.5124 273.278 44.6954C273.01 44.8811 272.69 44.9772 272.363 44.9698C271.906 44.9698 271.54 44.7869 271.174 44.5124C270.991 44.2379 270.808 43.7804 270.808 43.4145ZM271.082 45.7933H273.827V54.8511H271.082V45.7933ZM285.538 50.368C285.538 51.0084 285.447 51.5574 285.264 52.1063C285.081 52.6553 284.715 53.2043 284.349 53.6617C283.983 54.1192 283.434 54.4852 282.885 54.7597C282.336 55.0341 281.787 55.1256 281.147 55.2171C280.598 55.2171 280.14 55.1256 279.683 54.9426C279.225 54.7597 278.768 54.4852 278.493 54.1192V58.6024H275.749V45.7933H278.493V46.6167C278.859 46.2508 279.225 45.9763 279.683 45.7933C280.15 45.6141 280.646 45.5212 281.147 45.5188C281.787 45.5188 282.336 45.7018 282.885 45.9763C283.434 46.2508 283.891 46.6167 284.349 47.0742C284.715 47.5317 285.081 48.0806 285.264 48.6296C285.447 49.1785 285.538 49.7275 285.538 50.368ZM282.794 50.368C282.794 49.9105 282.611 49.5445 282.428 49.1785C282.153 48.8126 281.879 48.5381 281.421 48.4466C281.055 48.2636 280.598 48.2636 280.14 48.3551C279.683 48.4466 279.317 48.6296 279.042 48.9956C278.768 49.27 278.585 49.7275 278.493 50.0935C278.402 50.551 278.493 50.9169 278.585 51.3744C278.768 51.7404 279.042 52.1063 279.408 52.2893C279.774 52.5638 280.14 52.6553 280.598 52.6553C280.872 52.6553 281.147 52.6553 281.421 52.4723C281.696 52.3808 281.97 52.1978 282.153 52.0148C282.336 51.8319 282.519 51.5574 282.611 51.2829C282.794 50.9169 282.794 50.6424 282.794 50.368ZM293.864 52.1063C293.864 54.2107 292.034 55.0341 290.113 55.0341C289.29 55.1256 288.558 54.9426 287.826 54.5767C287.094 54.2107 286.545 53.5702 286.179 52.9298L288.558 51.5574C288.649 51.9234 288.832 52.1978 289.107 52.3808C289.381 52.5546 289.697 52.6496 290.022 52.6553C290.662 52.6553 291.028 52.4723 291.028 52.1063C291.028 51.0999 286.545 51.6489 286.545 48.5381C286.545 46.5252 288.192 45.6103 290.113 45.6103C290.845 45.6103 291.485 45.7933 292.126 46.0678C292.742 46.4088 293.249 46.916 293.59 47.5317L291.302 48.8126C291.211 48.5381 291.028 48.3551 290.845 48.2636C290.662 48.1721 290.388 48.0806 290.113 48.0806C289.656 48.0806 289.381 48.2636 289.381 48.6296C289.473 49.453 293.864 48.8126 293.864 52.1063ZM303.837 45.7933V54.8511H301.092V54.0277C300.818 54.3937 300.36 54.6682 299.903 54.8511C299.445 55.0341 298.988 55.1256 298.439 55.1256C296.609 55.1256 295.054 53.8447 295.054 51.3744V45.7933H297.799V50.9169C297.799 51.0999 297.799 51.3744 297.89 51.5574C297.981 51.7404 298.073 51.9234 298.256 52.1063C298.439 52.2893 298.622 52.3808 298.805 52.4723C298.988 52.5638 299.262 52.5638 299.445 52.5638C300.452 52.5638 301.092 52.0148 301.092 50.7339V45.7933H303.837ZM319.391 49.27V54.8511H316.646V49.5445C316.646 48.6296 316.189 48.0806 315.365 48.0806C314.45 48.0806 313.993 48.7211 313.993 49.819V54.9426H311.248V49.636C311.248 48.7211 310.791 48.1721 309.967 48.1721C309.052 48.1721 308.595 48.8126 308.595 49.9105V55.0341H305.85V45.9763H308.595V46.7997C308.877 46.4281 309.257 46.1429 309.693 45.9763C310.15 45.7933 310.608 45.7018 311.065 45.7018C311.523 45.7018 311.98 45.7933 312.437 45.9763C312.895 46.1593 313.169 46.5252 313.444 46.8912C313.756 46.4896 314.165 46.1746 314.633 45.9763C315.101 45.7971 315.597 45.7041 316.097 45.7018C318.019 45.5188 319.391 47.0742 319.391 49.27ZM321.678 45.7018C322.211 45.697 322.72 45.4834 323.096 45.107C323.473 44.7305 323.686 44.2213 323.691 43.6889C323.686 43.1566 323.473 42.6474 323.096 42.2709C322.72 41.8945 322.211 41.6809 321.678 41.6761C321.146 41.6809 320.637 41.8945 320.26 42.2709C319.884 42.6474 319.67 43.1566 319.665 43.6889C319.665 44.8784 320.58 45.7018 321.678 45.7018Z" fill="#B4B7C9"/>
</g>
</g>
<rect x="365.5" y="0.5" width="157.5" height="97.54" rx="7.5" fill="white"/>
<rect x="365.5" y="0.5" width="157.5" height="97.54" rx="7.5" stroke="#E2E5F1"/>
<g clip-path="url(#clip4_20005249_168)">
<g clip-path="url(#clip5_20005249_168)">
<path d="M443.976 55.1257H439.309V42.5911H443.976V55.1257ZM439.767 54.6683H443.518V43.0486H439.767V54.6683ZM450.472 55.1257H445.897V42.5911H455.504C456.876 42.4996 458.249 42.8656 459.346 43.689C459.793 44.1459 460.163 44.6709 460.444 45.2444C460.719 45.8849 460.81 46.5253 460.719 47.1658C460.81 48.2637 460.444 49.3616 459.712 50.2766C458.889 51.283 457.517 51.7405 455.595 51.7405H450.563L450.472 55.1257ZM446.354 54.6683H450.014V51.283H450.289H455.595C457.334 51.283 458.706 50.8255 459.438 50.0021C460.078 49.1787 460.353 48.2637 460.353 47.2573C460.444 46.7083 460.353 46.0679 460.17 45.5189C459.987 44.97 459.621 44.5125 459.164 44.055C458.157 43.3231 456.876 42.9571 455.595 43.0486H446.446L446.354 54.6683ZM454.497 48.9042H450.014V45.5189H454.589C454.955 45.5189 455.229 45.5189 455.504 45.6104C455.778 45.7019 456.053 45.8849 456.327 46.1594C456.51 46.4339 456.602 46.7998 456.602 47.2573C456.602 47.6233 456.51 47.8977 456.419 48.2637C456.236 48.5382 455.961 48.7212 455.595 48.8127C455.229 48.9042 454.863 48.9957 454.497 48.9042ZM450.472 48.4467H454.497C455.229 48.4467 455.687 48.2637 455.961 47.9892C456.053 47.7148 456.144 47.5318 456.144 47.2573C456.144 46.9828 456.144 46.7083 455.961 46.4339C455.778 46.0679 455.321 45.9764 454.589 45.9764H450.472V48.4467ZM469.045 55.3087C464.928 55.3087 462.457 54.3023 461.542 52.1979C461.359 51.832 461.268 51.3745 461.268 50.917V50.6426H466.117V50.8255C466.117 51.0085 466.208 51.1915 466.391 51.3745C466.574 51.649 467.215 52.015 469.411 52.015C471.973 52.015 471.973 51.5575 471.973 51.283C471.973 50.917 471.698 50.734 469.594 50.5511H469.228L466.94 50.3681C463.098 50.0021 461.359 48.8127 461.359 46.5253C461.359 44.055 464.287 42.4996 468.77 42.4996C472.43 42.4996 474.809 43.5061 475.815 45.4274C476.09 45.8849 476.181 46.3424 476.273 46.8913V47.1658H471.424V46.9828C471.424 46.7998 471.332 46.7083 471.241 46.5253C471.058 46.2509 470.509 45.8849 468.679 45.8849C466.483 45.8849 466.208 46.1594 466.208 46.4339C466.208 46.7998 466.94 46.9828 469.136 47.2573L472.064 47.5318C475.266 47.8978 476.73 49.0872 476.73 51.283C476.639 53.0214 475.358 55.3087 469.045 55.3087ZM461.725 51.1C461.817 51.3745 461.817 51.7405 462 52.015C462.823 53.9363 465.202 54.8513 469.045 54.8513C472.339 54.8513 476.181 54.2108 476.181 51.1C476.181 49.0872 474.9 48.0807 471.973 47.8063C471.424 47.7148 469.96 47.6233 469.045 47.5318C466.666 47.2573 465.66 47.1658 465.66 46.2509C465.66 45.3359 466.666 45.2444 468.587 45.2444C470.143 45.2444 471.058 45.5189 471.515 46.0679C471.607 46.1594 471.698 46.3424 471.79 46.5253H475.724C475.632 46.1594 475.541 45.7934 475.358 45.5189C474.443 43.7805 472.247 42.8656 468.679 42.8656C464.47 42.8656 461.725 44.238 461.725 46.4339C461.725 48.5382 463.281 49.5446 466.849 49.8191C467.306 49.8191 468.313 49.9106 469.136 50.0021H469.502C471.424 50.1851 472.339 50.3681 472.339 51.1915C472.339 52.1979 471.241 52.3809 469.319 52.3809C467.581 52.3809 466.391 52.1065 466.026 51.5575C465.934 51.3745 465.751 51.1915 465.751 51.0085H461.725V51.1ZM485.331 55.3087C480.573 55.3087 477.92 53.3874 477.92 49.9106V42.6826H482.586V49.9106C482.586 51.1 483.684 51.832 485.514 51.832C487.343 51.832 488.441 51.1 488.441 49.9106V42.6826H493.016V50.1851C493.016 53.3874 490.18 55.3087 485.331 55.3087ZM478.377 43.0486V49.8191C478.377 54.1193 482.769 54.7598 485.331 54.7598C487.984 54.7598 492.559 54.1193 492.559 50.1851V43.0486H488.899V49.8191C488.899 51.1915 487.618 52.1979 485.514 52.1979C483.409 52.1979 482.128 51.283 482.128 49.8191V43.0486H478.377ZM512.413 55.1257H508.021V49.4531L505.551 55.1257H501.708L499.238 49.4531V55.1257H494.846V42.5911H500.61L503.629 49.4531L506.74 42.5911H512.321L512.413 55.1257ZM508.479 54.6683H511.955V43.0486H507.106L503.629 50.6426L500.336 43.0486H495.303V54.6683H498.78V47.2573L501.982 54.6683H505.185L508.387 47.2573L508.479 54.6683ZM380.296 42.7741H376.087V54.8513H387.616V51.649H380.296V42.7741ZM396.033 42.4996C390.726 42.4996 387.89 45.0615 387.89 48.7212C387.89 52.9299 390.818 55.0342 396.033 55.0342C401.706 55.0342 404.176 52.5639 404.176 48.7212C404.084 44.8785 401.431 42.4996 396.033 42.4996ZM396.033 45.7019C396.399 45.7019 396.765 45.7019 397.131 45.7934L392.465 50.4596C392.282 50.0021 392.099 49.4531 392.19 48.9042C392.099 46.8913 393.014 45.7019 396.033 45.7019ZM396.033 52.015C395.667 52.015 395.301 52.015 395.027 51.9235L399.693 47.2573C399.876 47.7148 399.967 48.2637 399.967 48.8127C399.967 50.6426 399.052 51.9235 396.033 52.015ZM412.41 50.3681H416.711C416.619 50.6426 416.528 50.917 416.345 51.1915C415.43 51.9235 414.332 52.2894 413.142 52.1979C412.593 52.2894 411.953 52.1979 411.404 52.015C410.855 51.832 410.397 51.5575 409.94 51.1C409.483 50.4596 409.3 49.7276 409.391 48.9042C409.3 48.0807 409.574 47.2573 410.031 46.6168C410.672 45.9764 411.678 45.6104 413.142 45.6104C414.057 45.5189 415.064 45.7934 415.796 46.3424C416.07 46.5253 416.253 46.7998 416.345 47.0743H420.279C420.279 46.6168 420.096 46.0679 419.913 45.6104C418.998 43.689 416.711 42.4996 412.959 42.4996C409.666 42.4996 407.47 43.5061 406.28 44.97C405.457 46.0679 405.091 47.3488 405.091 48.7212C404.999 50.0936 405.457 51.466 406.189 52.5639C407.378 54.1193 409.483 54.8513 412.136 54.8513C413.874 54.9428 415.521 54.4853 416.894 53.4789L416.985 54.6683H420.279V47.5318H412.227V50.3681H412.41ZM429.794 42.4996C424.487 42.4996 421.651 45.0615 421.651 48.7212C421.651 52.9299 424.579 55.0342 429.794 55.0342C435.467 55.0342 437.937 52.5639 437.937 48.7212C437.846 44.8785 435.192 42.4996 429.794 42.4996ZM429.794 45.7019C430.16 45.7019 430.526 45.7019 430.892 45.7934L426.226 50.4596C426.043 50.0021 425.951 49.4531 425.951 48.9042C425.86 46.8913 426.775 45.7019 429.794 45.7019ZM429.794 51.9235C429.428 51.9235 429.062 51.9235 428.696 51.832L433.362 47.1658C433.545 47.6233 433.728 48.1722 433.637 48.7212C433.728 50.6426 432.813 51.9235 429.794 51.9235Z" fill="#B4B7C9"/>
</g>
</g>
<rect x="548" y="0.5" width="157.5" height="97.54" rx="7.5" fill="white"/>
<rect x="548" y="0.5" width="157.5" height="97.54" rx="7.5" stroke="#E2E5F1"/>
<g clip-path="url(#clip6_20005249_168)">
<g clip-path="url(#clip7_20005249_168)">
<path d="M579.814 39.8463V35.9121H567.554V62.6282H579.814V58.7855C577.344 58.7855 574.873 57.7791 573.135 56.0407C571.396 54.3023 570.39 51.832 570.39 49.3617C570.39 46.8913 571.396 44.421 573.135 42.6826C574.965 40.7613 577.344 39.8463 579.814 39.8463Z" fill="#B4B7C9"/>
<path d="M579.814 39.8463V58.7855C582.284 58.7855 584.754 57.779 586.493 56.0407C588.231 54.3023 589.238 51.832 589.238 49.3616C589.238 46.8913 588.231 44.421 586.493 42.6826C584.754 40.7612 582.376 39.8463 579.814 39.8463ZM596.191 42.2251H598.936V55.4002H596.191V42.2251ZM600.491 50.917C600.491 50.0021 600.766 48.9957 601.315 48.2637C601.864 47.4403 602.596 46.8913 603.511 46.5253C604.426 46.1594 605.341 46.0679 606.255 46.2509C607.17 46.4338 608.085 46.8913 608.726 47.5318C609.366 48.1722 609.824 49.0872 610.007 50.0021C610.19 50.917 610.098 51.9235 609.732 52.7469C609.366 53.6618 608.726 54.3938 607.994 54.8513C607.211 55.3831 606.287 55.6697 605.341 55.6747C604.7 55.6747 604.06 55.5832 603.511 55.3087C602.962 55.0342 602.413 54.7598 601.955 54.3023C601.498 53.8448 601.132 53.2959 600.949 52.7469C600.583 52.1064 600.491 51.466 600.491 50.917ZM607.353 50.917C607.353 50.5511 607.17 50.0936 606.987 49.8191C606.713 49.4531 606.438 49.2701 606.072 49.0872C605.707 48.9042 605.249 48.9042 604.883 48.9957C604.517 49.0872 604.151 49.2701 603.785 49.5446C603.511 49.8191 603.328 50.1851 603.236 50.6425C603.145 51.0085 603.236 51.466 603.328 51.832C603.511 52.1979 603.785 52.5639 604.06 52.7469C604.426 52.9299 604.792 53.1129 605.249 53.1129C605.524 53.1129 605.798 53.0214 606.072 52.9299C606.347 52.8384 606.53 52.6554 606.713 52.4724C606.896 52.2894 607.079 52.015 607.17 51.7405C607.353 51.466 607.353 51.1915 607.353 50.917ZM620.894 46.3424V54.9427C620.894 57.962 618.516 59.2429 616.137 59.2429C615.313 59.3344 614.398 59.1514 613.666 58.7855C612.934 58.4195 612.294 57.779 611.837 57.0471L614.124 55.6747C614.307 56.0407 614.581 56.4066 614.947 56.5896C615.319 56.7669 615.725 56.8606 616.137 56.8641C616.411 56.8641 616.686 56.8641 616.96 56.7726C617.235 56.6811 617.418 56.5896 617.692 56.4066C617.875 56.2236 618.058 56.0407 618.15 55.7662C618.241 55.4917 618.333 55.2172 618.241 54.9427V54.1193C617.929 54.5209 617.52 54.836 617.052 55.0342C616.594 55.2172 616.137 55.3087 615.588 55.3087C614.398 55.3087 613.209 54.8512 612.386 53.9363C611.562 53.1129 611.013 51.9235 611.013 50.734C611.013 49.5446 611.471 48.3552 612.386 47.5318C613.209 46.7083 614.398 46.1594 615.588 46.1594C616.088 46.1617 616.584 46.2547 617.052 46.4338C617.509 46.6168 617.875 46.9828 618.241 47.3488V46.4338L620.894 46.3424ZM618.241 50.6425C618.241 50.1851 618.15 49.7276 617.875 49.3616C617.601 48.9957 617.326 48.7212 616.869 48.5382C616.474 48.3379 616.023 48.2736 615.588 48.3552C615.13 48.4467 614.764 48.6297 614.398 48.9042C614.124 49.1787 613.849 49.6361 613.758 50.0021C613.666 50.4596 613.666 50.917 613.849 51.283C614.032 51.649 614.307 52.0149 614.673 52.2894C615.039 52.5639 615.496 52.6554 615.862 52.6554C616.137 52.6554 616.411 52.6554 616.686 52.5639C616.96 52.4724 617.235 52.2894 617.418 52.1064C617.601 51.9235 617.784 51.649 617.875 51.3745C618.241 51.283 618.241 51.0085 618.241 50.6425ZM622.45 50.917C622.45 50.0021 622.724 48.9957 623.273 48.2637C623.822 47.4403 624.554 46.8913 625.469 46.5253C626.384 46.1594 627.299 46.0679 628.214 46.2509C629.129 46.4338 630.044 46.8913 630.684 47.5318C631.325 48.1722 631.782 49.0872 631.965 50.0021C632.148 50.917 632.057 51.9235 631.691 52.7469C631.325 53.6618 630.684 54.3938 629.952 54.9427C629.169 55.4746 628.246 55.7612 627.299 55.7662C626.659 55.7662 626.018 55.6747 625.469 55.4002C624.92 55.1257 624.371 54.8512 623.914 54.3938C623.456 53.9363 623.09 53.3874 622.907 52.8384C622.603 52.2439 622.446 51.5849 622.45 50.917ZM629.312 50.917C629.312 50.5511 629.129 50.0936 628.946 49.7276C628.671 49.3616 628.397 49.1787 628.031 48.9957C627.665 48.8127 627.207 48.8127 626.842 48.9042C626.476 48.9957 626.11 49.1787 625.744 49.4531C625.378 49.7276 625.286 50.0936 625.195 50.5511C625.103 50.917 625.195 51.3745 625.286 51.7405C625.469 52.1064 625.744 52.4724 626.018 52.6554C626.384 52.8384 626.75 53.0214 627.207 53.0214C627.482 53.0214 627.756 52.9299 628.031 52.8384C628.305 52.7469 628.488 52.5639 628.671 52.3809C628.854 52.1979 629.037 51.9235 629.129 51.649C629.312 51.466 629.312 51.1915 629.312 50.917ZM633.246 43.9635C633.239 43.6372 633.335 43.317 633.521 43.0486C633.704 42.7741 633.978 42.5911 634.252 42.4081C634.527 42.3166 634.893 42.2251 635.167 42.3166C635.442 42.4081 635.808 42.4996 635.991 42.7741C636.174 42.9571 636.357 43.3231 636.448 43.5975C636.54 43.872 636.448 44.238 636.357 44.5125C636.265 44.787 635.991 45.0614 635.716 45.2444C635.448 45.4302 635.128 45.5263 634.801 45.5189C634.344 45.5189 633.978 45.3359 633.612 45.0614C633.429 44.787 633.338 44.3295 633.246 43.9635ZM633.521 46.3424H636.265V55.4002H633.521V46.3424ZM648.068 50.917C648.068 51.5575 647.977 52.1064 647.794 52.6554C647.611 53.2044 647.245 53.7533 646.879 54.2108C646.513 54.6683 645.964 55.0342 645.415 55.3087C644.866 55.5832 644.317 55.6747 643.676 55.7662C643.127 55.7662 642.67 55.6747 642.212 55.4917C641.755 55.3087 641.297 55.0342 640.932 54.6683V59.1514H638.187V46.3424H640.932V47.1658C641.297 46.7998 641.663 46.5253 642.212 46.3424C642.68 46.1632 643.176 46.0702 643.676 46.0679C644.317 46.0679 644.866 46.2509 645.415 46.5253C645.964 46.7998 646.421 47.1658 646.879 47.6233C647.245 48.0807 647.611 48.6297 647.794 49.1787C647.977 49.6361 648.068 50.2766 648.068 50.917ZM645.323 50.917C645.323 50.4596 645.14 50.0936 644.957 49.7276C644.683 49.3616 644.408 49.0872 643.951 48.9957C643.585 48.8127 643.127 48.8127 642.67 48.9042C642.212 48.9957 641.846 49.1787 641.572 49.5446C641.297 49.8191 641.114 50.2766 641.023 50.6425C640.931 51.1 641.023 51.466 641.114 51.9235C641.297 52.2894 641.572 52.6554 641.938 52.8384C642.304 53.1129 642.67 53.2044 643.127 53.2044C643.402 53.2044 643.676 53.2044 643.951 53.0214C644.225 52.9299 644.5 52.7469 644.683 52.5639C644.866 52.3809 645.049 52.1064 645.14 51.832C645.323 51.466 645.323 51.1915 645.323 50.917ZM656.394 52.6554C656.394 54.7598 654.564 55.5832 652.643 55.5832C651.819 55.6747 651.087 55.4917 650.355 55.1257C649.623 54.7598 649.074 54.1193 648.708 53.4788L651.087 52.1064C651.179 52.4724 651.362 52.7469 651.636 52.9299C651.91 53.1037 652.227 53.1987 652.551 53.2044C653.192 53.2044 653.558 53.0214 653.558 52.6554C653.558 51.649 649.074 52.1979 649.074 49.0872C649.074 47.0743 650.721 46.1594 652.643 46.1594C653.375 46.1594 654.107 46.2509 654.747 46.6168C655.387 46.9828 655.936 47.4403 656.302 48.0807L653.924 49.3616C653.832 49.0872 653.649 48.9042 653.466 48.8127C653.283 48.6297 653.009 48.6297 652.734 48.6297C652.277 48.6297 652.002 48.8127 652.002 49.0872C651.911 50.0021 656.394 49.3616 656.394 52.6554ZM666.367 46.3424V55.4002H663.622V54.5768C663.347 54.9427 662.89 55.2172 662.432 55.4917C661.975 55.6747 661.518 55.7662 660.969 55.7662C659.139 55.7662 657.583 54.4853 657.583 52.015V46.4338H660.328V51.5575C660.328 51.7405 660.328 52.015 660.42 52.1979C660.511 52.3809 660.603 52.5639 660.786 52.7469C660.969 52.9299 661.152 53.0214 661.335 53.1129C661.518 53.2044 661.792 53.2044 661.975 53.2044C662.981 53.2044 663.622 52.6554 663.622 51.3745V46.4338H666.367V46.3424ZM681.921 49.8191V55.4002H679.176V50.0936C679.176 49.1787 678.718 48.6297 677.895 48.6297C677.071 48.6297 676.431 49.2701 676.431 50.3681V55.4917H673.686V50.1851C673.686 49.2701 673.229 48.7212 672.405 48.7212C671.582 48.7212 670.941 49.3616 670.941 50.4596V55.5832H668.197V46.5253H670.941V47.3488C671.223 46.9772 671.604 46.6919 672.039 46.5253C672.497 46.3424 672.954 46.2509 673.412 46.2509C673.869 46.2509 674.327 46.3424 674.784 46.5253C675.242 46.7083 675.516 47.0743 675.791 47.4403C676.102 47.0386 676.512 46.7236 676.98 46.5253C677.447 46.3462 677.943 46.2532 678.444 46.2509C680.548 46.0679 681.921 47.6233 681.921 49.8191ZM684.208 46.2509C684.74 46.2461 685.25 46.0325 685.626 45.656C686.002 45.2796 686.216 44.7704 686.221 44.238C686.216 43.7056 686.002 43.1964 685.626 42.82C685.25 42.4435 684.74 42.2299 684.208 42.2251C683.676 42.2299 683.166 42.4435 682.79 42.82C682.413 43.1964 682.2 43.7056 682.195 44.238C682.2 44.7704 682.413 45.2796 682.79 45.656C683.166 46.0325 683.676 46.2461 684.208 46.2509Z" fill="#B4B7C9"/>
</g>
</g>
<defs>
<clipPath id="clip0_20005249_168">
<rect width="140.9" height="32.94" fill="white" transform="translate(8.80005 32.8)"/>
</clipPath>
<clipPath id="clip1_20005249_168">
<rect width="140.9" height="32.94" fill="white" transform="translate(8.80005 32.8)"/>
</clipPath>
<clipPath id="clip2_20005249_168">
<rect width="140.9" height="32.94" fill="white" transform="translate(191.3 32.8)"/>
</clipPath>
<clipPath id="clip3_20005249_168">
<rect width="140.9" height="32.94" fill="white" transform="translate(191.3 32.8)"/>
</clipPath>
<clipPath id="clip4_20005249_168">
<rect width="140.9" height="32.94" fill="white" transform="translate(373.8 32.8)"/>
</clipPath>
<clipPath id="clip5_20005249_168">
<rect width="140.9" height="32.94" fill="white" transform="translate(373.8 32.8)"/>
</clipPath>
<clipPath id="clip6_20005249_168">
<rect width="140.9" height="32.94" fill="white" transform="translate(556.3 32.8)"/>
</clipPath>
<clipPath id="clip7_20005249_168">
<rect width="140.9" height="32.94" fill="white" transform="translate(556.3 32.8)"/>
</clipPath>
</defs>
</svg>
