<svg width="217" height="34" viewBox="0 0 217 34" fill="none" xmlns="http://www.w3.org/2000/svg">
<path d="M5.35049 11.371C4.63649 11.371 3.96449 11.238 3.33449 10.972C2.70449 10.7013 2.15149 10.328 1.67549 9.852C1.19949 9.376 0.826159 8.823 0.555492 8.193C0.284826 7.563 0.149492 6.88867 0.149492 6.17C0.149492 5.45133 0.284826 4.777 0.555492 4.147C0.826159 3.517 1.19949 2.964 1.67549 2.488C2.15149 2.012 2.70449 1.641 3.33449 1.375C3.96449 1.10433 4.63649 0.968999 5.35049 0.968999C6.07383 0.968999 6.74816 1.10433 7.37349 1.375C8.00349 1.641 8.55649 2.012 9.03249 2.488C9.50849 2.964 9.88183 3.517 10.1525 4.147C10.4232 4.777 10.5585 5.45133 10.5585 6.17C10.5585 6.88867 10.4232 7.563 10.1525 8.193C9.88183 8.823 9.50849 9.376 9.03249 9.852C8.55649 10.328 8.00349 10.7013 7.37349 10.972C6.74816 11.238 6.07383 11.371 5.35049 11.371ZM5.41349 9.117C4.98883 9.117 4.60849 9.04467 4.27249 8.9C3.93649 8.75533 3.64249 8.52433 3.39049 8.207C3.14783 7.899 2.97983 7.56767 2.88649 7.213C2.79783 6.85833 2.75349 6.50367 2.75349 6.149C2.75816 5.785 2.80716 5.428 2.90049 5.078C2.99849 4.728 3.16183 4.40833 3.39049 4.119C3.64249 3.80633 3.93883 3.57533 4.27949 3.426C4.62016 3.27667 5.01216 3.202 5.45549 3.202C5.70749 3.202 5.94549 3.23 6.16949 3.286C6.39349 3.33733 6.61516 3.42833 6.83449 3.559C7.05849 3.699 7.25683 3.874 7.42949 4.084C7.60216 4.294 7.72583 4.53667 7.80049 4.812L6.93949 5.071C6.88349 4.92633 6.80416 4.78633 6.70149 4.651C6.59883 4.51567 6.47983 4.399 6.34449 4.301C6.21383 4.20767 6.06683 4.14 5.90349 4.098C5.74483 4.05133 5.58383 4.028 5.42049 4.028C5.14983 4.028 4.90249 4.084 4.67849 4.196C4.45449 4.30333 4.26316 4.455 4.10449 4.651C3.94583 4.85633 3.83616 5.092 3.77549 5.358C3.71483 5.61933 3.68449 5.88067 3.68449 6.142C3.68449 6.42667 3.71716 6.702 3.78249 6.968C3.85249 7.234 3.95983 7.465 4.10449 7.661C4.25383 7.86633 4.44049 8.02267 4.66449 8.13C4.89316 8.23733 5.14516 8.291 5.42049 8.291C5.78449 8.291 6.09716 8.20233 6.35849 8.025C6.49383 7.927 6.60583 7.81733 6.69449 7.696C6.78316 7.57467 6.85783 7.43933 6.91849 7.29L7.80049 7.528C7.69783 7.794 7.56716 8.025 7.40849 8.221C7.24983 8.417 7.08416 8.57567 6.91149 8.697C6.70149 8.837 6.47516 8.942 6.23249 9.012C5.99449 9.082 5.72149 9.117 5.41349 9.117ZM5.35049 10.37C5.93383 10.37 6.47749 10.2627 6.98149 10.048C7.48549 9.82867 7.92883 9.52767 8.31149 9.145C8.69883 8.75767 8.99983 8.30967 9.21449 7.801C9.43383 7.28767 9.54349 6.74167 9.54349 6.163C9.54349 5.57967 9.43383 5.036 9.21449 4.532C8.99983 4.028 8.69883 3.58467 8.31149 3.202C7.92883 2.81467 7.48549 2.51367 6.98149 2.299C6.47749 2.07967 5.93383 1.97 5.35049 1.97C4.77183 1.97 4.22583 2.07967 3.71249 2.299C3.20383 2.51367 2.75583 2.81467 2.36849 3.202C1.98583 3.58467 1.68483 4.028 1.46549 4.532C1.25083 5.036 1.14349 5.57967 1.14349 6.163C1.14349 6.74167 1.25083 7.28767 1.46549 7.801C1.68483 8.30967 1.98583 8.75767 2.36849 9.145C2.75583 9.52767 3.20383 9.82867 3.71249 10.048C4.22583 10.2627 4.77183 10.37 5.35049 10.37ZM14.4842 10.993L14.4912 10.055L19.0482 5.939C19.4402 5.58433 19.6992 5.24833 19.8252 4.931C19.9558 4.609 20.0212 4.273 20.0212 3.923C20.0212 3.50767 19.9232 3.132 19.7272 2.796C19.5312 2.46 19.2675 2.194 18.9362 1.998C18.6048 1.79733 18.2338 1.697 17.8232 1.697C17.3938 1.697 17.0112 1.79967 16.6752 2.005C16.3392 2.21033 16.0732 2.481 15.8772 2.817C15.6858 3.153 15.5925 3.51933 15.5972 3.916H14.5472C14.5472 3.30467 14.6918 2.75633 14.9812 2.271C15.2705 1.78567 15.6625 1.40533 16.1572 1.13C16.6518 0.85 17.2118 0.71 17.8372 0.71C18.4485 0.71 18.9968 0.854666 19.4822 1.144C19.9722 1.42867 20.3572 1.816 20.6372 2.306C20.9218 2.79133 21.0642 3.33267 21.0642 3.93C21.0642 4.35 21.0128 4.721 20.9102 5.043C20.8122 5.36033 20.6558 5.65667 20.4412 5.932C20.2312 6.20267 19.9628 6.48267 19.6362 6.772L15.5902 10.426L15.4292 10.006H21.0642V10.993H14.4842ZM26.0386 11.21C25.4179 11.21 24.8579 11.0653 24.3586 10.776C23.8639 10.4867 23.4719 10.0947 23.1826 9.6C22.8932 9.10067 22.7486 8.54067 22.7486 7.92V4C22.7486 3.37933 22.8932 2.82167 23.1826 2.327C23.4719 1.82767 23.8639 1.43333 24.3586 1.144C24.8579 0.854666 25.4179 0.71 26.0386 0.71C26.6592 0.71 27.2169 0.854666 27.7116 1.144C28.2109 1.43333 28.6052 1.82767 28.8946 2.327C29.1839 2.82167 29.3286 3.37933 29.3286 4V7.92C29.3286 8.54067 29.1839 9.10067 28.8946 9.6C28.6052 10.0947 28.2109 10.4867 27.7116 10.776C27.2169 11.0653 26.6592 11.21 26.0386 11.21ZM26.0386 10.216C26.4539 10.216 26.8319 10.1157 27.1726 9.915C27.5132 9.70967 27.7839 9.43667 27.9846 9.096C28.1852 8.75533 28.2856 8.37967 28.2856 7.969V3.951C28.2856 3.53567 28.1852 3.15767 27.9846 2.817C27.7839 2.47633 27.5132 2.20567 27.1726 2.005C26.8319 1.79967 26.4539 1.697 26.0386 1.697C25.6232 1.697 25.2452 1.79967 24.9046 2.005C24.5639 2.20567 24.2932 2.47633 24.0926 2.817C23.8919 3.15767 23.7916 3.53567 23.7916 3.951V7.969C23.7916 8.37967 23.8919 8.75533 24.0926 9.096C24.2932 9.43667 24.5639 9.70967 24.9046 9.915C25.2452 10.1157 25.6232 10.216 26.0386 10.216ZM31.0135 10.993L31.0205 10.055L35.5775 5.939C35.9695 5.58433 36.2285 5.24833 36.3545 4.931C36.4851 4.609 36.5505 4.273 36.5505 3.923C36.5505 3.50767 36.4525 3.132 36.2565 2.796C36.0605 2.46 35.7968 2.194 35.4655 1.998C35.1341 1.79733 34.7631 1.697 34.3525 1.697C33.9231 1.697 33.5405 1.79967 33.2045 2.005C32.8685 2.21033 32.6025 2.481 32.4065 2.817C32.2151 3.153 32.1218 3.51933 32.1265 3.916H31.0765C31.0765 3.30467 31.2211 2.75633 31.5105 2.271C31.7998 1.78567 32.1918 1.40533 32.6865 1.13C33.1811 0.85 33.7411 0.71 34.3665 0.71C34.9778 0.71 35.5261 0.854666 36.0115 1.144C36.5015 1.42867 36.8865 1.816 37.1665 2.306C37.4511 2.79133 37.5935 3.33267 37.5935 3.93C37.5935 4.35 37.5421 4.721 37.4395 5.043C37.3415 5.36033 37.1851 5.65667 36.9705 5.932C36.7605 6.20267 36.4921 6.48267 36.1655 6.772L32.1195 10.426L31.9585 10.006H37.5935V10.993H31.0135ZM43.4424 11V9.047H38.7244V8.067L42.0984 0.92H43.2534L39.8794 8.067H43.4424V5.127H44.4784V8.067H45.5774V9.047H44.4784V11H43.4424ZM53.565 11.21C52.8603 11.21 52.2256 11.0933 51.661 10.86C51.101 10.622 50.6366 10.286 50.268 9.852C49.904 9.418 49.666 8.90233 49.554 8.305L50.604 8.13C50.772 8.78333 51.1266 9.29667 51.668 9.67C52.2093 10.0387 52.8556 10.223 53.607 10.223C54.1016 10.223 54.545 10.146 54.937 9.992C55.329 9.83333 55.637 9.60933 55.861 9.32C56.085 9.03067 56.197 8.68767 56.197 8.291C56.197 8.02967 56.1503 7.808 56.057 7.626C55.9636 7.43933 55.84 7.28533 55.686 7.164C55.532 7.04267 55.364 6.94233 55.182 6.863C55 6.779 54.8226 6.71133 54.65 6.66L52.095 5.897C51.787 5.80833 51.5023 5.69633 51.241 5.561C50.9796 5.421 50.751 5.25533 50.555 5.064C50.3636 4.868 50.2143 4.63933 50.107 4.378C49.9996 4.11667 49.946 3.818 49.946 3.482C49.946 2.91267 50.0953 2.42033 50.394 2.005C50.6926 1.58967 51.101 1.27 51.619 1.046C52.137 0.822 52.7273 0.712333 53.39 0.716999C54.062 0.716999 54.6616 0.835999 55.189 1.074C55.721 1.312 56.1596 1.65267 56.505 2.096C56.8503 2.53467 57.079 3.055 57.191 3.657L56.113 3.853C56.043 3.41433 55.882 3.034 55.63 2.712C55.378 2.39 55.056 2.14267 54.664 1.97C54.2766 1.79267 53.8496 1.70167 53.383 1.697C52.9303 1.697 52.5266 1.774 52.172 1.928C51.822 2.07733 51.5443 2.28267 51.339 2.544C51.1336 2.80533 51.031 3.104 51.031 3.44C51.031 3.78067 51.1243 4.05367 51.311 4.259C51.5023 4.46433 51.7356 4.62533 52.011 4.742C52.291 4.85867 52.5616 4.95433 52.823 5.029L54.797 5.61C55.0023 5.666 55.2426 5.74767 55.518 5.855C55.798 5.95767 56.0686 6.107 56.33 6.303C56.596 6.49433 56.8153 6.74633 56.988 7.059C57.1606 7.37167 57.247 7.76833 57.247 8.249C57.247 8.71567 57.1536 9.13333 56.967 9.502C56.785 9.87067 56.526 10.181 56.19 10.433C55.8586 10.685 55.469 10.8763 55.021 11.007C54.5776 11.1423 54.0923 11.21 53.565 11.21ZM58.8319 2.005V0.85H59.8609V2.005H58.8319ZM58.8319 11V3.44H59.8609V11H58.8319ZM62.0995 11V0.71H63.1285V11H62.0995ZM65.3671 2.005V0.85H66.3961V2.005H65.3671ZM65.3671 11V3.44H66.3961V11H65.3671ZM71.6306 11.21C70.87 11.21 70.226 11.0397 69.6986 10.699C69.1713 10.3583 68.77 9.88933 68.4946 9.292C68.224 8.69 68.084 7.99933 68.0746 7.22C68.084 6.42667 68.2286 5.73133 68.5086 5.134C68.7886 4.532 69.1923 4.06533 69.7196 3.734C70.247 3.398 70.8863 3.23 71.6376 3.23C72.403 3.23 73.068 3.41667 73.6326 3.79C74.202 4.16333 74.5916 4.67433 74.8016 5.323L73.7936 5.645C73.6163 5.19233 73.334 4.84233 72.9466 4.595C72.564 4.343 72.1253 4.217 71.6306 4.217C71.0753 4.217 70.6156 4.34533 70.2516 4.602C69.8876 4.854 69.617 5.20633 69.4396 5.659C69.2623 6.11167 69.1713 6.632 69.1666 7.22C69.176 8.12533 69.386 8.85333 69.7966 9.404C70.2073 9.95 70.8186 10.223 71.6306 10.223C72.144 10.223 72.5803 10.1063 72.9396 9.873C73.3036 9.635 73.579 9.28967 73.7656 8.837L74.8016 9.145C74.5216 9.817 74.111 10.3303 73.5696 10.685C73.0283 11.035 72.382 11.21 71.6306 11.21ZM79.1985 11.21C78.4472 11.21 77.8055 11.0397 77.2735 10.699C76.7415 10.3583 76.3332 9.887 76.0485 9.285C75.7639 8.683 75.6215 7.99233 75.6215 7.213C75.6215 6.41967 75.7662 5.72433 76.0555 5.127C76.3449 4.52967 76.7555 4.06533 77.2875 3.734C77.8242 3.398 78.4612 3.23 79.1985 3.23C79.9545 3.23 80.5985 3.40033 81.1305 3.741C81.6672 4.077 82.0755 4.546 82.3555 5.148C82.6402 5.74533 82.7825 6.43367 82.7825 7.213C82.7825 8.00633 82.6402 8.704 82.3555 9.306C82.0709 9.90333 81.6602 10.37 81.1235 10.706C80.5869 11.042 79.9452 11.21 79.1985 11.21ZM79.1985 10.223C80.0385 10.223 80.6639 9.94533 81.0745 9.39C81.4852 8.83 81.6905 8.10433 81.6905 7.213C81.6905 6.29833 81.4829 5.57033 81.0675 5.029C80.6569 4.48767 80.0339 4.217 79.1985 4.217C78.6339 4.217 78.1672 4.34533 77.7985 4.602C77.4345 4.854 77.1615 5.20633 76.9795 5.659C76.8022 6.107 76.7135 6.625 76.7135 7.213C76.7135 8.123 76.9235 8.85333 77.3435 9.404C77.7635 9.95 78.3819 10.223 79.1985 10.223ZM89.7867 11V7.143C89.7867 6.723 89.747 6.338 89.6677 5.988C89.5883 5.63333 89.46 5.32533 89.2827 5.064C89.11 4.798 88.8837 4.59267 88.6037 4.448C88.3283 4.30333 87.9923 4.231 87.5957 4.231C87.2317 4.231 86.9097 4.294 86.6297 4.42C86.3543 4.546 86.121 4.728 85.9297 4.966C85.743 5.19933 85.6007 5.484 85.5027 5.82C85.4047 6.156 85.3557 6.53867 85.3557 6.968L84.6277 6.807C84.6277 6.03233 84.763 5.38133 85.0337 4.854C85.3043 4.32667 85.6777 3.92767 86.1537 3.657C86.6297 3.38633 87.1757 3.251 87.7917 3.251C88.2443 3.251 88.6387 3.321 88.9747 3.461C89.3153 3.601 89.6023 3.79 89.8357 4.028C90.0737 4.266 90.265 4.539 90.4097 4.847C90.5543 5.15033 90.6593 5.47467 90.7247 5.82C90.79 6.16067 90.8227 6.50133 90.8227 6.842V11H89.7867ZM84.3197 11V3.44H85.2507V5.302H85.3557V11H84.3197ZM92.8352 11V9.803H94.0322V11H92.8352ZM98.2966 11L101.769 0.92H103.134L106.606 11H105.535L102.238 1.494H102.644L99.3676 11H98.2966ZM99.8436 8.557V7.591H105.052V8.557H99.8436ZM108.01 11V0.71H109.039V11H108.01ZM111.277 11V0.71H112.306V11H111.277ZM117.208 11V3.44H118.132V5.26L117.95 5.022C118.034 4.798 118.143 4.59267 118.279 4.406C118.414 4.21467 118.561 4.05833 118.72 3.937C118.916 3.76433 119.144 3.63367 119.406 3.545C119.667 3.45167 119.931 3.398 120.197 3.384C120.463 3.36533 120.705 3.384 120.925 3.44V4.406C120.649 4.336 120.348 4.31967 120.022 4.357C119.695 4.39433 119.394 4.525 119.119 4.749C118.867 4.945 118.678 5.18067 118.552 5.456C118.426 5.72667 118.342 6.016 118.3 6.324C118.258 6.62733 118.237 6.92833 118.237 7.227V11H117.208ZM122.392 2.005V0.85H123.421V2.005H122.392ZM122.392 11V3.44H123.421V11H122.392ZM128.523 14.57C128.136 14.57 127.753 14.5117 127.375 14.395C127.002 14.283 126.656 14.1033 126.339 13.856C126.022 13.6133 125.756 13.296 125.541 12.904L126.472 12.386C126.682 12.806 126.976 13.107 127.354 13.289C127.737 13.4757 128.126 13.569 128.523 13.569C129.069 13.569 129.51 13.4663 129.846 13.261C130.187 13.0603 130.434 12.7617 130.588 12.365C130.742 11.9683 130.817 11.4737 130.812 10.881V8.865H130.931V3.44H131.848V10.895C131.848 11.1097 131.841 11.315 131.827 11.511C131.818 11.7117 131.797 11.9077 131.764 12.099C131.675 12.6637 131.491 13.128 131.211 13.492C130.936 13.856 130.572 14.1267 130.119 14.304C129.671 14.4813 129.139 14.57 128.523 14.57ZM128.453 11.21C127.748 11.21 127.146 11.035 126.647 10.685C126.148 10.3303 125.765 9.852 125.499 9.25C125.233 8.648 125.1 7.969 125.1 7.213C125.1 6.46167 125.231 5.785 125.492 5.183C125.758 4.581 126.138 4.105 126.633 3.755C127.128 3.405 127.72 3.23 128.411 3.23C129.12 3.23 129.718 3.40267 130.203 3.748C130.688 4.09333 131.055 4.567 131.302 5.169C131.554 5.76633 131.68 6.44767 131.68 7.213C131.68 7.96433 131.556 8.64333 131.309 9.25C131.062 9.852 130.698 10.3303 130.217 10.685C129.736 11.035 129.148 11.21 128.453 11.21ZM128.558 10.251C129.095 10.251 129.538 10.1203 129.888 9.859C130.238 9.59767 130.499 9.23833 130.672 8.781C130.845 8.319 130.931 7.79633 130.931 7.213C130.931 6.62033 130.845 6.09767 130.672 5.645C130.499 5.18767 130.238 4.83067 129.888 4.574C129.543 4.31733 129.106 4.189 128.579 4.189C128.038 4.189 127.59 4.322 127.235 4.588C126.88 4.854 126.617 5.21567 126.444 5.673C126.276 6.13033 126.192 6.64367 126.192 7.213C126.192 7.787 126.278 8.305 126.451 8.767C126.628 9.22433 126.892 9.586 127.242 9.852C127.592 10.118 128.031 10.251 128.558 10.251ZM139.265 11V7.143C139.265 6.723 139.226 6.338 139.146 5.988C139.067 5.63333 138.939 5.32533 138.761 5.064C138.589 4.798 138.362 4.59267 138.082 4.448C137.807 4.30333 137.471 4.231 137.074 4.231C136.71 4.231 136.388 4.294 136.108 4.42C135.833 4.546 135.6 4.728 135.408 4.966C135.222 5.19933 135.079 5.484 134.981 5.82C134.883 6.156 134.834 6.53867 134.834 6.968L134.106 6.807C134.106 6.03233 134.242 5.38133 134.512 4.854C134.783 4.32667 135.156 3.92767 135.632 3.657C136.108 3.38633 136.654 3.251 137.27 3.251C137.723 3.251 138.117 3.321 138.453 3.461C138.794 3.601 139.081 3.79 139.314 4.028C139.552 4.266 139.744 4.539 139.888 4.847C140.033 5.15033 140.138 5.47467 140.203 5.82C140.269 6.16067 140.301 6.50133 140.301 6.842V11H139.265ZM133.798 11V0.92H134.729V6.611H134.834V11H133.798ZM146.234 11C145.809 11.0887 145.389 11.1237 144.974 11.105C144.563 11.0863 144.194 10.9977 143.868 10.839C143.546 10.6803 143.301 10.433 143.133 10.097C142.997 9.817 142.923 9.53467 142.909 9.25C142.899 8.96067 142.895 8.63167 142.895 8.263V1.34H143.917V8.221C143.917 8.53833 143.919 8.80433 143.924 9.019C143.933 9.229 143.982 9.41567 144.071 9.579C144.239 9.89167 144.505 10.0783 144.869 10.139C145.237 10.1997 145.692 10.1857 146.234 10.097V11ZM141.278 4.322V3.44H146.234V4.322H141.278ZM150.544 11.203C149.657 11.203 148.927 11.0117 148.353 10.629C147.784 10.2463 147.434 9.71433 147.303 9.033L148.353 8.858C148.465 9.28733 148.719 9.63033 149.116 9.887C149.517 10.139 150.012 10.265 150.6 10.265C151.174 10.265 151.627 10.146 151.958 9.908C152.289 9.66533 152.455 9.33633 152.455 8.921C152.455 8.68767 152.401 8.49867 152.294 8.354C152.191 8.20467 151.979 8.067 151.657 7.941C151.335 7.815 150.854 7.66567 150.215 7.493C149.529 7.30633 148.992 7.11967 148.605 6.933C148.218 6.74633 147.942 6.53167 147.779 6.289C147.616 6.04167 147.534 5.74067 147.534 5.386C147.534 4.95667 147.655 4.581 147.898 4.259C148.141 3.93233 148.477 3.68033 148.906 3.503C149.335 3.321 149.835 3.23 150.404 3.23C150.973 3.23 151.482 3.32333 151.93 3.51C152.383 3.692 152.747 3.94867 153.022 4.28C153.297 4.61133 153.461 4.99633 153.512 5.435L152.462 5.624C152.392 5.18067 152.17 4.83067 151.797 4.574C151.428 4.31267 150.959 4.17733 150.39 4.168C149.853 4.154 149.417 4.25667 149.081 4.476C148.745 4.69067 148.577 4.97767 148.577 5.337C148.577 5.53767 148.638 5.71033 148.759 5.855C148.88 5.995 149.1 6.128 149.417 6.254C149.739 6.38 150.196 6.51767 150.789 6.667C151.484 6.84433 152.03 7.031 152.427 7.227C152.824 7.423 153.106 7.654 153.274 7.92C153.442 8.186 153.526 8.515 153.526 8.907C153.526 9.621 153.26 10.1833 152.728 10.594C152.201 11 151.473 11.203 150.544 11.203ZM157.881 11V3.44H158.805V5.26L158.623 5.022C158.707 4.798 158.817 4.59267 158.952 4.406C159.088 4.21467 159.235 4.05833 159.393 3.937C159.589 3.76433 159.818 3.63367 160.079 3.545C160.341 3.45167 160.604 3.398 160.87 3.384C161.136 3.36533 161.379 3.384 161.598 3.44V4.406C161.323 4.336 161.022 4.31967 160.695 4.357C160.369 4.39433 160.068 4.525 159.792 4.749C159.54 4.945 159.351 5.18067 159.225 5.456C159.099 5.72667 159.015 6.016 158.973 6.324C158.931 6.62733 158.91 6.92833 158.91 7.227V11H157.881ZM165.989 11.21C165.251 11.21 164.612 11.0467 164.071 10.72C163.534 10.3933 163.116 9.93367 162.818 9.341C162.519 8.74833 162.37 8.053 162.37 7.255C162.37 6.429 162.517 5.715 162.811 5.113C163.105 4.511 163.518 4.04667 164.05 3.72C164.586 3.39333 165.219 3.23 165.947 3.23C166.693 3.23 167.33 3.40267 167.858 3.748C168.385 4.08867 168.784 4.57867 169.055 5.218C169.325 5.85733 169.449 6.62033 169.426 7.507H168.376V7.143C168.357 6.163 168.145 5.42333 167.739 4.924C167.337 4.42467 166.749 4.175 165.975 4.175C165.163 4.175 164.54 4.43867 164.106 4.966C163.676 5.49333 163.462 6.24467 163.462 7.22C163.462 8.172 163.676 8.91167 164.106 9.439C164.54 9.96167 165.153 10.223 165.947 10.223C166.488 10.223 166.959 10.0993 167.361 9.852C167.767 9.6 168.086 9.23833 168.32 8.767L169.279 9.138C168.98 9.796 168.539 10.307 167.956 10.671C167.377 11.0303 166.721 11.21 165.989 11.21ZM163.098 7.507V6.646H168.873V7.507H163.098ZM173.8 11.203C172.913 11.203 172.183 11.0117 171.609 10.629C171.04 10.2463 170.69 9.71433 170.559 9.033L171.609 8.858C171.721 9.28733 171.975 9.63033 172.372 9.887C172.773 10.139 173.268 10.265 173.856 10.265C174.43 10.265 174.883 10.146 175.214 9.908C175.545 9.66533 175.711 9.33633 175.711 8.921C175.711 8.68767 175.657 8.49867 175.55 8.354C175.447 8.20467 175.235 8.067 174.913 7.941C174.591 7.815 174.11 7.66567 173.471 7.493C172.785 7.30633 172.248 7.11967 171.861 6.933C171.474 6.74633 171.198 6.53167 171.035 6.289C170.872 6.04167 170.79 5.74067 170.79 5.386C170.79 4.95667 170.911 4.581 171.154 4.259C171.397 3.93233 171.733 3.68033 172.162 3.503C172.591 3.321 173.091 3.23 173.66 3.23C174.229 3.23 174.738 3.32333 175.186 3.51C175.639 3.692 176.003 3.94867 176.278 4.28C176.553 4.61133 176.717 4.99633 176.768 5.435L175.718 5.624C175.648 5.18067 175.426 4.83067 175.053 4.574C174.684 4.31267 174.215 4.17733 173.646 4.168C173.109 4.154 172.673 4.25667 172.337 4.476C172.001 4.69067 171.833 4.97767 171.833 5.337C171.833 5.53767 171.894 5.71033 172.015 5.855C172.136 5.995 172.356 6.128 172.673 6.254C172.995 6.38 173.452 6.51767 174.045 6.667C174.74 6.84433 175.286 7.031 175.683 7.227C176.08 7.423 176.362 7.654 176.53 7.92C176.698 8.186 176.782 8.515 176.782 8.907C176.782 9.621 176.516 10.1833 175.984 10.594C175.457 11 174.729 11.203 173.8 11.203ZM181.533 11.21C180.796 11.21 180.157 11.0467 179.615 10.72C179.079 10.3933 178.661 9.93367 178.362 9.341C178.064 8.74833 177.914 8.053 177.914 7.255C177.914 6.429 178.061 5.715 178.355 5.113C178.649 4.511 179.062 4.04667 179.594 3.72C180.131 3.39333 180.763 3.23 181.491 3.23C182.238 3.23 182.875 3.40267 183.402 3.748C183.93 4.08867 184.329 4.57867 184.599 5.218C184.87 5.85733 184.994 6.62033 184.97 7.507H183.92V7.143C183.902 6.163 183.689 5.42333 183.283 4.924C182.882 4.42467 182.294 4.175 181.519 4.175C180.707 4.175 180.084 4.43867 179.65 4.966C179.221 5.49333 179.006 6.24467 179.006 7.22C179.006 8.172 179.221 8.91167 179.65 9.439C180.084 9.96167 180.698 10.223 181.491 10.223C182.033 10.223 182.504 10.0993 182.905 9.852C183.311 9.6 183.631 9.23833 183.864 8.767L184.823 9.138C184.525 9.796 184.084 10.307 183.5 10.671C182.922 11.0303 182.266 11.21 181.533 11.21ZM178.642 7.507V6.646H184.417V7.507H178.642ZM186.524 11V3.44H187.448V5.26L187.266 5.022C187.35 4.798 187.46 4.59267 187.595 4.406C187.73 4.21467 187.877 4.05833 188.036 3.937C188.232 3.76433 188.461 3.63367 188.722 3.545C188.983 3.45167 189.247 3.398 189.513 3.384C189.779 3.36533 190.022 3.384 190.241 3.44V4.406C189.966 4.336 189.665 4.31967 189.338 4.357C189.011 4.39433 188.71 4.525 188.435 4.749C188.183 4.945 187.994 5.18067 187.868 5.456C187.742 5.72667 187.658 6.016 187.616 6.324C187.574 6.62733 187.553 6.92833 187.553 7.227V11H186.524ZM193.613 11L190.869 3.44H191.912L194.145 9.656L196.364 3.44H197.421L194.677 11H193.613ZM201.604 11.21C200.866 11.21 200.227 11.0467 199.686 10.72C199.149 10.3933 198.731 9.93367 198.433 9.341C198.134 8.74833 197.985 8.053 197.985 7.255C197.985 6.429 198.132 5.715 198.426 5.113C198.72 4.511 199.133 4.04667 199.665 3.72C200.201 3.39333 200.834 3.23 201.562 3.23C202.308 3.23 202.945 3.40267 203.473 3.748C204 4.08867 204.399 4.57867 204.67 5.218C204.94 5.85733 205.064 6.62033 205.041 7.507H203.991V7.143C203.972 6.163 203.76 5.42333 203.354 4.924C202.952 4.42467 202.364 4.175 201.59 4.175C200.778 4.175 200.155 4.43867 199.721 4.966C199.291 5.49333 199.077 6.24467 199.077 7.22C199.077 8.172 199.291 8.91167 199.721 9.439C200.155 9.96167 200.768 10.223 201.562 10.223C202.103 10.223 202.574 10.0993 202.976 9.852C203.382 9.6 203.701 9.23833 203.935 8.767L204.894 9.138C204.595 9.796 204.154 10.307 203.571 10.671C202.992 11.0303 202.336 11.21 201.604 11.21ZM198.713 7.507V6.646H204.488V7.507H198.713ZM209.527 11.21C208.823 11.21 208.221 11.035 207.721 10.685C207.222 10.3303 206.839 9.852 206.573 9.25C206.307 8.648 206.174 7.969 206.174 7.213C206.174 6.46167 206.305 5.785 206.566 5.183C206.832 4.581 207.213 4.105 207.707 3.755C208.202 3.405 208.795 3.23 209.485 3.23C210.195 3.23 210.792 3.40267 211.277 3.748C211.763 4.09333 212.129 4.567 212.376 5.169C212.628 5.76633 212.754 6.44767 212.754 7.213C212.754 7.96433 212.631 8.64333 212.383 9.25C212.136 9.852 211.772 10.3303 211.291 10.685C210.811 11.035 210.223 11.21 209.527 11.21ZM209.632 10.251C210.169 10.251 210.612 10.1203 210.962 9.859C211.312 9.59767 211.574 9.23833 211.746 8.781C211.919 8.319 212.005 7.79633 212.005 7.213C212.005 6.62033 211.919 6.09767 211.746 5.645C211.574 5.18767 211.312 4.83067 210.962 4.574C210.617 4.31733 210.181 4.189 209.653 4.189C209.112 4.189 208.664 4.322 208.309 4.588C207.955 4.854 207.691 5.21567 207.518 5.673C207.35 6.13033 207.266 6.64367 207.266 7.213C207.266 7.787 207.353 8.305 207.525 8.767C207.703 9.22433 207.966 9.586 208.316 9.852C208.666 10.118 209.105 10.251 209.632 10.251ZM212.005 11V5.309H211.893V0.92H212.929V11H212.005ZM215.089 11V9.803H216.286V11H215.089ZM43.9809 33.21C42.9776 33.21 42.1306 32.9883 41.4399 32.545C40.7493 32.097 40.2266 31.4787 39.8719 30.69C39.5173 29.9013 39.3399 28.9913 39.3399 27.96C39.3399 26.9287 39.5173 26.0187 39.8719 25.23C40.2266 24.4413 40.7493 23.8253 41.4399 23.382C42.1306 22.934 42.9776 22.71 43.9809 22.71C45.1523 22.71 46.1089 23.011 46.8509 23.613C47.5929 24.2103 48.1016 25.013 48.3769 26.021L47.3269 26.294C47.1123 25.496 46.7273 24.8637 46.1719 24.397C45.6166 23.9303 44.8863 23.697 43.9809 23.697C43.1923 23.697 42.5366 23.8767 42.0139 24.236C41.4913 24.5953 41.0969 25.097 40.8309 25.741C40.5696 26.3803 40.4343 27.12 40.4249 27.96C40.4203 28.8 40.5486 29.5397 40.8099 30.179C41.0759 30.8183 41.4726 31.32 41.9999 31.684C42.5319 32.0433 43.1923 32.223 43.9809 32.223C44.8863 32.223 45.6166 31.9897 46.1719 31.523C46.7273 31.0517 47.1123 30.4193 47.3269 29.626L48.3769 29.899C48.1016 30.907 47.5929 31.712 46.8509 32.314C46.1089 32.9113 45.1523 33.21 43.9809 33.21ZM49.9214 33V25.44H50.8454V27.26L50.6634 27.022C50.7474 26.798 50.8571 26.5927 50.9924 26.406C51.1277 26.2147 51.2747 26.0583 51.4334 25.937C51.6294 25.7643 51.8581 25.6337 52.1194 25.545C52.3807 25.4517 52.6444 25.398 52.9104 25.384C53.1764 25.3653 53.4191 25.384 53.6384 25.44V26.406C53.3631 26.336 53.0621 26.3197 52.7354 26.357C52.4087 26.3943 52.1077 26.525 51.8324 26.749C51.5804 26.945 51.3914 27.1807 51.2654 27.456C51.1394 27.7267 51.0554 28.016 51.0134 28.324C50.9714 28.6273 50.9504 28.9283 50.9504 29.227V33H49.9214ZM58.0286 33.21C57.2913 33.21 56.6519 33.0467 56.1106 32.72C55.5739 32.3933 55.1563 31.9337 54.8576 31.341C54.5589 30.7483 54.4096 30.053 54.4096 29.255C54.4096 28.429 54.5566 27.715 54.8506 27.113C55.1446 26.511 55.5576 26.0467 56.0896 25.72C56.6263 25.3933 57.2586 25.23 57.9866 25.23C58.7333 25.23 59.3703 25.4027 59.8976 25.748C60.4249 26.0887 60.8239 26.5787 61.0946 27.218C61.3653 27.8573 61.4889 28.6203 61.4656 29.507H60.4156V29.143C60.3969 28.163 60.1846 27.4233 59.7786 26.924C59.3773 26.4247 58.7893 26.175 58.0146 26.175C57.2026 26.175 56.5796 26.4387 56.1456 26.966C55.7163 27.4933 55.5016 28.2447 55.5016 29.22C55.5016 30.172 55.7163 30.9117 56.1456 31.439C56.5796 31.9617 57.1933 32.223 57.9866 32.223C58.5279 32.223 58.9993 32.0993 59.4006 31.852C59.8066 31.6 60.1263 31.2383 60.3596 30.767L61.3186 31.138C61.0199 31.796 60.5789 32.307 59.9956 32.671C59.4169 33.0303 58.7613 33.21 58.0286 33.21ZM55.1376 29.507V28.646H60.9126V29.507H55.1376ZM65.9521 33.21C65.2474 33.21 64.6454 33.035 64.1461 32.685C63.6467 32.3303 63.2641 31.852 62.9981 31.25C62.7321 30.648 62.5991 29.969 62.5991 29.213C62.5991 28.4617 62.7297 27.785 62.9911 27.183C63.2571 26.581 63.6374 26.105 64.1321 25.755C64.6267 25.405 65.2194 25.23 65.9101 25.23C66.6194 25.23 67.2167 25.4027 67.7021 25.748C68.1874 26.0933 68.5537 26.567 68.8011 27.169C69.0531 27.7663 69.1791 28.4477 69.1791 29.213C69.1791 29.9643 69.0554 30.6433 68.8081 31.25C68.5607 31.852 68.1967 32.3303 67.7161 32.685C67.2354 33.035 66.6474 33.21 65.9521 33.21ZM66.0571 32.251C66.5937 32.251 67.0371 32.1203 67.3871 31.859C67.7371 31.5977 67.9984 31.2383 68.1711 30.781C68.3437 30.319 68.4301 29.7963 68.4301 29.213C68.4301 28.6203 68.3437 28.0977 68.1711 27.645C67.9984 27.1877 67.7371 26.8307 67.3871 26.574C67.0417 26.3173 66.6054 26.189 66.0781 26.189C65.5367 26.189 65.0887 26.322 64.7341 26.588C64.3794 26.854 64.1157 27.2157 63.9431 27.673C63.7751 28.1303 63.6911 28.6437 63.6911 29.213C63.6911 29.787 63.7774 30.305 63.9501 30.767C64.1274 31.2243 64.3911 31.586 64.7411 31.852C65.0911 32.118 65.5297 32.251 66.0571 32.251ZM68.4301 33V27.309H68.3181V22.92H69.3541V33H68.4301ZM71.4579 24.005V22.85H72.4869V24.005H71.4579ZM71.4579 33V25.44H72.4869V33H71.4579ZM78.7015 33C78.2768 33.0887 77.8568 33.1237 77.4415 33.105C77.0308 33.0863 76.6621 32.9977 76.3355 32.839C76.0135 32.6803 75.7685 32.433 75.6005 32.097C75.4651 31.817 75.3905 31.5347 75.3765 31.25C75.3671 30.9607 75.3625 30.6317 75.3625 30.263V23.34H76.3845V30.221C76.3845 30.5383 76.3868 30.8043 76.3915 31.019C76.4008 31.229 76.4498 31.4157 76.5385 31.579C76.7065 31.8917 76.9725 32.0783 77.3365 32.139C77.7051 32.1997 78.1601 32.1857 78.7015 32.097V33ZM73.7455 26.322V25.44H78.7015V26.322H73.7455ZM82.9937 33V22.92H83.9387L87.9007 31.397L91.8417 22.92H92.8007V32.993H91.8207V25.216L88.2297 33H87.5647L83.9807 25.216V33H82.9937ZM96.9282 33.21C96.3588 33.21 95.8805 33.1073 95.4932 32.902C95.1105 32.6967 94.8235 32.4237 94.6322 32.083C94.4408 31.7423 94.3452 31.3713 94.3452 30.97C94.3452 30.5593 94.4268 30.2093 94.5902 29.92C94.7582 29.626 94.9845 29.3857 95.2692 29.199C95.5585 29.0123 95.8922 28.87 96.2702 28.772C96.6528 28.6787 97.0752 28.597 97.5372 28.527C98.0038 28.4523 98.4588 28.3893 98.9022 28.338C99.3502 28.282 99.7422 28.2283 100.078 28.177L99.7142 28.401C99.7282 27.6543 99.5835 27.1013 99.2802 26.742C98.9768 26.3827 98.4495 26.203 97.6982 26.203C97.1802 26.203 96.7415 26.3197 96.3822 26.553C96.0275 26.7863 95.7778 27.155 95.6332 27.659L94.6322 27.365C94.8048 26.6883 95.1525 26.1633 95.6752 25.79C96.1978 25.4167 96.8768 25.23 97.7122 25.23C98.4028 25.23 98.9885 25.3607 99.4692 25.622C99.9545 25.8787 100.297 26.252 100.498 26.742C100.591 26.9613 100.652 27.2063 100.68 27.477C100.708 27.7477 100.722 28.023 100.722 28.303V33H99.8052V31.103L100.071 31.215C99.8145 31.8637 99.4155 32.3583 98.8742 32.699C98.3328 33.0397 97.6842 33.21 96.9282 33.21ZM97.0472 32.321C97.5278 32.321 97.9478 32.2347 98.3072 32.062C98.6665 31.8893 98.9558 31.6537 99.1752 31.355C99.3945 31.0517 99.5368 30.711 99.6022 30.333C99.6582 30.0903 99.6885 29.8243 99.6932 29.535C99.6978 29.241 99.7002 29.0217 99.7002 28.877L100.092 29.08C99.7422 29.1267 99.3618 29.1733 98.9512 29.22C98.5452 29.2667 98.1438 29.3203 97.7472 29.381C97.3552 29.4417 97.0005 29.514 96.6832 29.598C96.4685 29.6587 96.2608 29.745 96.0602 29.857C95.8595 29.9643 95.6938 30.109 95.5632 30.291C95.4372 30.473 95.3742 30.6993 95.3742 30.97C95.3742 31.1893 95.4278 31.4017 95.5352 31.607C95.6472 31.8123 95.8245 31.9827 96.0672 32.118C96.3145 32.2533 96.6412 32.321 97.0472 32.321ZM105.477 33.21C104.773 33.21 104.171 33.035 103.671 32.685C103.172 32.3303 102.789 31.852 102.523 31.25C102.257 30.648 102.124 29.969 102.124 29.213C102.124 28.4617 102.255 27.785 102.516 27.183C102.782 26.581 103.163 26.105 103.657 25.755C104.152 25.405 104.745 25.23 105.435 25.23C106.145 25.23 106.742 25.4027 107.227 25.748C107.713 26.0933 108.079 26.567 108.326 27.169C108.578 27.7663 108.704 28.4477 108.704 29.213C108.704 29.9643 108.581 30.6433 108.333 31.25C108.086 31.852 107.722 32.3303 107.241 32.685C106.761 33.035 106.173 33.21 105.477 33.21ZM105.582 32.251C106.119 32.251 106.562 32.1203 106.912 31.859C107.262 31.5977 107.524 31.2383 107.696 30.781C107.869 30.319 107.955 29.7963 107.955 29.213C107.955 28.6203 107.869 28.0977 107.696 27.645C107.524 27.1877 107.262 26.8307 106.912 26.574C106.567 26.3173 106.131 26.189 105.603 26.189C105.062 26.189 104.614 26.322 104.259 26.588C103.905 26.854 103.641 27.2157 103.468 27.673C103.3 28.1303 103.216 28.6437 103.216 29.213C103.216 29.787 103.303 30.305 103.475 30.767C103.653 31.2243 103.916 31.586 104.266 31.852C104.616 32.118 105.055 32.251 105.582 32.251ZM107.955 33V27.309H107.843V22.92H108.879V33H107.955ZM110.843 33V25.44H111.767V27.26L111.585 27.022C111.669 26.798 111.779 26.5927 111.914 26.406C112.05 26.2147 112.197 26.0583 112.355 25.937C112.551 25.7643 112.78 25.6337 113.041 25.545C113.303 25.4517 113.566 25.398 113.832 25.384C114.098 25.3653 114.341 25.384 114.56 25.44V26.406C114.285 26.336 113.984 26.3197 113.657 26.357C113.331 26.3943 113.03 26.525 112.754 26.749C112.502 26.945 112.313 27.1807 112.187 27.456C112.061 27.7267 111.977 28.016 111.935 28.324C111.893 28.6273 111.872 28.9283 111.872 29.227V33H110.843ZM117.764 33.21C117.195 33.21 116.716 33.1073 116.329 32.902C115.946 32.6967 115.659 32.4237 115.468 32.083C115.277 31.7423 115.181 31.3713 115.181 30.97C115.181 30.5593 115.263 30.2093 115.426 29.92C115.594 29.626 115.82 29.3857 116.105 29.199C116.394 29.0123 116.728 28.87 117.106 28.772C117.489 28.6787 117.911 28.597 118.373 28.527C118.84 28.4523 119.295 28.3893 119.738 28.338C120.186 28.282 120.578 28.2283 120.914 28.177L120.55 28.401C120.564 27.6543 120.419 27.1013 120.116 26.742C119.813 26.3827 119.285 26.203 118.534 26.203C118.016 26.203 117.577 26.3197 117.218 26.553C116.863 26.7863 116.614 27.155 116.469 27.659L115.468 27.365C115.641 26.6883 115.988 26.1633 116.511 25.79C117.034 25.4167 117.713 25.23 118.548 25.23C119.239 25.23 119.824 25.3607 120.305 25.622C120.79 25.8787 121.133 26.252 121.334 26.742C121.427 26.9613 121.488 27.2063 121.516 27.477C121.544 27.7477 121.558 28.023 121.558 28.303V33H120.641V31.103L120.907 31.215C120.65 31.8637 120.251 32.3583 119.71 32.699C119.169 33.0397 118.52 33.21 117.764 33.21ZM117.883 32.321C118.364 32.321 118.784 32.2347 119.143 32.062C119.502 31.8893 119.792 31.6537 120.011 31.355C120.23 31.0517 120.373 30.711 120.438 30.333C120.494 30.0903 120.524 29.8243 120.529 29.535C120.534 29.241 120.536 29.0217 120.536 28.877L120.928 29.08C120.578 29.1267 120.198 29.1733 119.787 29.22C119.381 29.2667 118.98 29.3203 118.583 29.381C118.191 29.4417 117.836 29.514 117.519 29.598C117.304 29.6587 117.097 29.745 116.896 29.857C116.695 29.9643 116.53 30.109 116.399 30.291C116.273 30.473 116.21 30.6993 116.21 30.97C116.21 31.1893 116.264 31.4017 116.371 31.607C116.483 31.8123 116.66 31.9827 116.903 32.118C117.15 32.2533 117.477 32.321 117.883 32.321ZM126.201 33.203C125.315 33.203 124.584 33.0117 124.01 32.629C123.441 32.2463 123.091 31.7143 122.96 31.033L124.01 30.858C124.122 31.2873 124.377 31.6303 124.773 31.887C125.175 32.139 125.669 32.265 126.257 32.265C126.831 32.265 127.284 32.146 127.615 31.908C127.947 31.6653 128.112 31.3363 128.112 30.921C128.112 30.6877 128.059 30.4987 127.951 30.354C127.849 30.2047 127.636 30.067 127.314 29.941C126.992 29.815 126.512 29.6657 125.872 29.493C125.186 29.3063 124.65 29.1197 124.262 28.933C123.875 28.7463 123.6 28.5317 123.436 28.289C123.273 28.0417 123.191 27.7407 123.191 27.386C123.191 26.9567 123.313 26.581 123.555 26.259C123.798 25.9323 124.134 25.6803 124.563 25.503C124.993 25.321 125.492 25.23 126.061 25.23C126.631 25.23 127.139 25.3233 127.587 25.51C128.04 25.692 128.404 25.9487 128.679 26.28C128.955 26.6113 129.118 26.9963 129.169 27.435L128.119 27.624C128.049 27.1807 127.828 26.8307 127.454 26.574C127.086 26.3127 126.617 26.1773 126.047 26.168C125.511 26.154 125.074 26.2567 124.738 26.476C124.402 26.6907 124.234 26.9777 124.234 27.337C124.234 27.5377 124.295 27.7103 124.416 27.855C124.538 27.995 124.757 28.128 125.074 28.254C125.396 28.38 125.854 28.5177 126.446 28.667C127.142 28.8443 127.688 29.031 128.084 29.227C128.481 29.423 128.763 29.654 128.931 29.92C129.099 30.186 129.183 30.515 129.183 30.907C129.183 31.621 128.917 32.1833 128.385 32.594C127.858 33 127.13 33.203 126.201 33.203ZM132.72 33V23.907H129.199V22.92H137.27V23.907H133.749V33H132.72ZM143.852 33V29.143C143.852 28.723 143.812 28.338 143.733 27.988C143.654 27.6333 143.525 27.3253 143.348 27.064C143.175 26.798 142.949 26.5927 142.669 26.448C142.394 26.3033 142.058 26.231 141.661 26.231C141.297 26.231 140.975 26.294 140.695 26.42C140.42 26.546 140.186 26.728 139.995 26.966C139.808 27.1993 139.666 27.484 139.568 27.82C139.47 28.156 139.421 28.5387 139.421 28.968L138.693 28.807C138.693 28.0323 138.828 27.3813 139.099 26.854C139.37 26.3267 139.743 25.9277 140.219 25.657C140.695 25.3863 141.241 25.251 141.857 25.251C142.31 25.251 142.704 25.321 143.04 25.461C143.381 25.601 143.668 25.79 143.901 26.028C144.139 26.266 144.33 26.539 144.475 26.847C144.62 27.1503 144.725 27.4747 144.79 27.82C144.855 28.1607 144.888 28.5013 144.888 28.842V33H143.852ZM138.385 33V22.92H139.316V28.611H139.421V33H138.385ZM149.904 33.21C149.166 33.21 148.527 33.0467 147.986 32.72C147.449 32.3933 147.031 31.9337 146.733 31.341C146.434 30.7483 146.285 30.053 146.285 29.255C146.285 28.429 146.432 27.715 146.726 27.113C147.02 26.511 147.433 26.0467 147.965 25.72C148.501 25.3933 149.134 25.23 149.862 25.23C150.608 25.23 151.245 25.4027 151.773 25.748C152.3 26.0887 152.699 26.5787 152.97 27.218C153.24 27.8573 153.364 28.6203 153.341 29.507H152.291V29.143C152.272 28.163 152.06 27.4233 151.654 26.924C151.252 26.4247 150.664 26.175 149.89 26.175C149.078 26.175 148.455 26.4387 148.021 26.966C147.591 27.4933 147.377 28.2447 147.377 29.22C147.377 30.172 147.591 30.9117 148.021 31.439C148.455 31.9617 149.068 32.223 149.862 32.223C150.403 32.223 150.874 32.0993 151.276 31.852C151.682 31.6 152.001 31.2383 152.235 30.767L153.194 31.138C152.895 31.796 152.454 32.307 151.871 32.671C151.292 33.0303 150.636 33.21 149.904 33.21ZM147.013 29.507V28.646H152.788V29.507H147.013ZM163.705 33L163.712 28.037C163.712 27.4537 163.549 26.9963 163.222 26.665C162.9 26.329 162.489 26.161 161.99 26.161C161.705 26.161 161.428 26.2263 161.157 26.357C160.886 26.4877 160.662 26.6977 160.485 26.987C160.312 27.2763 160.226 27.6543 160.226 28.121L159.617 27.946C159.603 27.4047 159.708 26.931 159.932 26.525C160.161 26.119 160.473 25.804 160.87 25.58C161.271 25.3513 161.724 25.237 162.228 25.237C162.989 25.237 163.598 25.4727 164.055 25.944C164.512 26.4107 164.741 27.043 164.741 27.841L164.734 33H163.705ZM154.682 33V25.44H155.606V27.302H155.718V33H154.682ZM159.204 33L159.211 28.107C159.211 27.505 159.05 27.0313 158.728 26.686C158.411 26.336 157.991 26.161 157.468 26.161C156.945 26.161 156.523 26.3407 156.201 26.7C155.879 27.0547 155.718 27.5283 155.718 28.121L155.102 27.785C155.102 27.2997 155.216 26.8657 155.445 26.483C155.674 26.0957 155.986 25.7923 156.383 25.573C156.78 25.349 157.23 25.237 157.734 25.237C158.215 25.237 158.642 25.3397 159.015 25.545C159.393 25.7503 159.689 26.049 159.904 26.441C160.119 26.833 160.226 27.309 160.226 27.869L160.219 33H159.204ZM169.714 33.21C168.977 33.21 168.337 33.0467 167.796 32.72C167.259 32.3933 166.842 31.9337 166.543 31.341C166.244 30.7483 166.095 30.053 166.095 29.255C166.095 28.429 166.242 27.715 166.536 27.113C166.83 26.511 167.243 26.0467 167.775 25.72C168.312 25.3933 168.944 25.23 169.672 25.23C170.419 25.23 171.056 25.4027 171.583 25.748C172.11 26.0887 172.509 26.5787 172.78 27.218C173.051 27.8573 173.174 28.6203 173.151 29.507H172.101V29.143C172.082 28.163 171.87 27.4233 171.464 26.924C171.063 26.4247 170.475 26.175 169.7 26.175C168.888 26.175 168.265 26.4387 167.831 26.966C167.402 27.4933 167.187 28.2447 167.187 29.22C167.187 30.172 167.402 30.9117 167.831 31.439C168.265 31.9617 168.879 32.223 169.672 32.223C170.213 32.223 170.685 32.0993 171.086 31.852C171.492 31.6 171.812 31.2383 172.045 30.767L173.004 31.138C172.705 31.796 172.264 32.307 171.681 32.671C171.102 33.0303 170.447 33.21 169.714 33.21ZM166.823 29.507V28.646H172.598V29.507H166.823ZM177.526 33.203C176.639 33.203 175.909 33.0117 175.335 32.629C174.765 32.2463 174.415 31.7143 174.285 31.033L175.335 30.858C175.447 31.2873 175.701 31.6303 176.098 31.887C176.499 32.139 176.994 32.265 177.582 32.265C178.156 32.265 178.608 32.146 178.94 31.908C179.271 31.6653 179.437 31.3363 179.437 30.921C179.437 30.6877 179.383 30.4987 179.276 30.354C179.173 30.2047 178.961 30.067 178.639 29.941C178.317 29.815 177.836 29.6657 177.197 29.493C176.511 29.3063 175.974 29.1197 175.587 28.933C175.199 28.7463 174.924 28.5317 174.761 28.289C174.597 28.0417 174.516 27.7407 174.516 27.386C174.516 26.9567 174.637 26.581 174.88 26.259C175.122 25.9323 175.458 25.6803 175.888 25.503C176.317 25.321 176.816 25.23 177.386 25.23C177.955 25.23 178.464 25.3233 178.912 25.51C179.364 25.692 179.728 25.9487 180.004 26.28C180.279 26.6113 180.442 26.9963 180.494 27.435L179.444 27.624C179.374 27.1807 179.152 26.8307 178.779 26.574C178.41 26.3127 177.941 26.1773 177.372 26.168C176.835 26.154 176.399 26.2567 176.063 26.476C175.727 26.6907 175.559 26.9777 175.559 27.337C175.559 27.5377 175.619 27.7103 175.741 27.855C175.862 27.995 176.081 28.128 176.399 28.254C176.721 28.38 177.178 28.5177 177.771 28.667C178.466 28.8443 179.012 29.031 179.409 29.227C179.805 29.423 180.088 29.654 180.256 29.92C180.424 30.186 180.508 30.515 180.508 30.907C180.508 31.621 180.242 32.1833 179.71 32.594C179.182 33 178.454 33.203 177.526 33.203Z" fill="#9397AD"/>
</svg>
