<svg width="362" height="15" viewBox="0 0 362 15" fill="none" xmlns="http://www.w3.org/2000/svg">
<path d="M5.27041 11.371C4.55641 11.371 3.88441 11.238 3.25441 10.972C2.62441 10.7013 2.07141 10.328 1.59541 9.852C1.11941 9.376 0.746081 8.823 0.475414 8.193C0.204747 7.563 0.0694141 6.88867 0.0694141 6.17C0.0694141 5.45133 0.204747 4.777 0.475414 4.147C0.746081 3.517 1.11941 2.964 1.59541 2.488C2.07141 2.012 2.62441 1.641 3.25441 1.375C3.88441 1.10433 4.55641 0.968999 5.27041 0.968999C5.99375 0.968999 6.66808 1.10433 7.29341 1.375C7.92341 1.641 8.47641 2.012 8.95241 2.488C9.42841 2.964 9.80175 3.517 10.0724 4.147C10.3431 4.777 10.4784 5.45133 10.4784 6.17C10.4784 6.88867 10.3431 7.563 10.0724 8.193C9.80175 8.823 9.42841 9.376 8.95241 9.852C8.47641 10.328 7.92341 10.7013 7.29341 10.972C6.66808 11.238 5.99375 11.371 5.27041 11.371ZM5.33341 9.117C4.90875 9.117 4.52841 9.04467 4.19241 8.9C3.85641 8.75533 3.56241 8.52433 3.31041 8.207C3.06775 7.899 2.89975 7.56767 2.80641 7.213C2.71775 6.85833 2.67341 6.50367 2.67341 6.149C2.67808 5.785 2.72708 5.428 2.82041 5.078C2.91841 4.728 3.08175 4.40833 3.31041 4.119C3.56241 3.80633 3.85875 3.57533 4.19941 3.426C4.54008 3.27667 4.93208 3.202 5.37541 3.202C5.62741 3.202 5.86541 3.23 6.08941 3.286C6.31341 3.33733 6.53508 3.42833 6.75441 3.559C6.97841 3.699 7.17675 3.874 7.34941 4.084C7.52208 4.294 7.64575 4.53667 7.72041 4.812L6.85941 5.071C6.80341 4.92633 6.72408 4.78633 6.62141 4.651C6.51875 4.51567 6.39975 4.399 6.26441 4.301C6.13375 4.20767 5.98675 4.14 5.82341 4.098C5.66475 4.05133 5.50375 4.028 5.34041 4.028C5.06975 4.028 4.82241 4.084 4.59841 4.196C4.37441 4.30333 4.18308 4.455 4.02441 4.651C3.86575 4.85633 3.75608 5.092 3.69541 5.358C3.63475 5.61933 3.60441 5.88067 3.60441 6.142C3.60441 6.42667 3.63708 6.702 3.70241 6.968C3.77241 7.234 3.87975 7.465 4.02441 7.661C4.17375 7.86633 4.36041 8.02267 4.58441 8.13C4.81308 8.23733 5.06508 8.291 5.34041 8.291C5.70441 8.291 6.01708 8.20233 6.27841 8.025C6.41375 7.927 6.52575 7.81733 6.61441 7.696C6.70308 7.57467 6.77775 7.43933 6.83841 7.29L7.72041 7.528C7.61775 7.794 7.48708 8.025 7.32841 8.221C7.16975 8.417 7.00408 8.57567 6.83141 8.697C6.62141 8.837 6.39508 8.942 6.15241 9.012C5.91441 9.082 5.64141 9.117 5.33341 9.117ZM5.27041 10.37C5.85375 10.37 6.39741 10.2627 6.90141 10.048C7.40541 9.82867 7.84875 9.52767 8.23141 9.145C8.61875 8.75767 8.91975 8.30967 9.13441 7.801C9.35375 7.28767 9.46341 6.74167 9.46341 6.163C9.46341 5.57967 9.35375 5.036 9.13441 4.532C8.91975 4.028 8.61875 3.58467 8.23141 3.202C7.84875 2.81467 7.40541 2.51367 6.90141 2.299C6.39741 2.07967 5.85375 1.97 5.27041 1.97C4.69175 1.97 4.14575 2.07967 3.63241 2.299C3.12375 2.51367 2.67575 2.81467 2.28841 3.202C1.90575 3.58467 1.60475 4.028 1.38541 4.532C1.17075 5.036 1.06341 5.57967 1.06341 6.163C1.06341 6.74167 1.17075 7.28767 1.38541 7.801C1.60475 8.30967 1.90575 8.75767 2.28841 9.145C2.67575 9.52767 3.12375 9.82867 3.63241 10.048C4.14575 10.2627 4.69175 10.37 5.27041 10.37ZM14.4041 10.993L14.4111 10.055L18.9681 5.939C19.3601 5.58433 19.6191 5.24833 19.7451 4.931C19.8758 4.609 19.9411 4.273 19.9411 3.923C19.9411 3.50767 19.8431 3.132 19.6471 2.796C19.4511 2.46 19.1874 2.194 18.8561 1.998C18.5248 1.79733 18.1538 1.697 17.7431 1.697C17.3138 1.697 16.9311 1.79967 16.5951 2.005C16.2591 2.21033 15.9931 2.481 15.7971 2.817C15.6058 3.153 15.5124 3.51933 15.5171 3.916H14.4671C14.4671 3.30467 14.6118 2.75633 14.9011 2.271C15.1904 1.78567 15.5824 1.40533 16.0771 1.13C16.5718 0.85 17.1318 0.71 17.7571 0.71C18.3684 0.71 18.9168 0.854666 19.4021 1.144C19.8921 1.42867 20.2771 1.816 20.5571 2.306C20.8418 2.79133 20.9841 3.33267 20.9841 3.93C20.9841 4.35 20.9328 4.721 20.8301 5.043C20.7321 5.36033 20.5758 5.65667 20.3611 5.932C20.1511 6.20267 19.8828 6.48267 19.5561 6.772L15.5101 10.426L15.3491 10.006H20.9841V10.993H14.4041ZM25.9585 11.21C25.3378 11.21 24.7778 11.0653 24.2785 10.776C23.7838 10.4867 23.3918 10.0947 23.1025 9.6C22.8131 9.10067 22.6685 8.54067 22.6685 7.92V4C22.6685 3.37933 22.8131 2.82167 23.1025 2.327C23.3918 1.82767 23.7838 1.43333 24.2785 1.144C24.7778 0.854666 25.3378 0.71 25.9585 0.71C26.5791 0.71 27.1368 0.854666 27.6315 1.144C28.1308 1.43333 28.5251 1.82767 28.8145 2.327C29.1038 2.82167 29.2485 3.37933 29.2485 4V7.92C29.2485 8.54067 29.1038 9.10067 28.8145 9.6C28.5251 10.0947 28.1308 10.4867 27.6315 10.776C27.1368 11.0653 26.5791 11.21 25.9585 11.21ZM25.9585 10.216C26.3738 10.216 26.7518 10.1157 27.0925 9.915C27.4331 9.70967 27.7038 9.43667 27.9045 9.096C28.1051 8.75533 28.2055 8.37967 28.2055 7.969V3.951C28.2055 3.53567 28.1051 3.15767 27.9045 2.817C27.7038 2.47633 27.4331 2.20567 27.0925 2.005C26.7518 1.79967 26.3738 1.697 25.9585 1.697C25.5431 1.697 25.1651 1.79967 24.8245 2.005C24.4838 2.20567 24.2131 2.47633 24.0125 2.817C23.8118 3.15767 23.7115 3.53567 23.7115 3.951V7.969C23.7115 8.37967 23.8118 8.75533 24.0125 9.096C24.2131 9.43667 24.4838 9.70967 24.8245 9.915C25.1651 10.1157 25.5431 10.216 25.9585 10.216ZM30.9334 10.993L30.9404 10.055L35.4974 5.939C35.8894 5.58433 36.1484 5.24833 36.2744 4.931C36.4051 4.609 36.4704 4.273 36.4704 3.923C36.4704 3.50767 36.3724 3.132 36.1764 2.796C35.9804 2.46 35.7167 2.194 35.3854 1.998C35.0541 1.79733 34.6831 1.697 34.2724 1.697C33.8431 1.697 33.4604 1.79967 33.1244 2.005C32.7884 2.21033 32.5224 2.481 32.3264 2.817C32.1351 3.153 32.0417 3.51933 32.0464 3.916H30.9964C30.9964 3.30467 31.1411 2.75633 31.4304 2.271C31.7197 1.78567 32.1117 1.40533 32.6064 1.13C33.1011 0.85 33.6611 0.71 34.2864 0.71C34.8977 0.71 35.4461 0.854666 35.9314 1.144C36.4214 1.42867 36.8064 1.816 37.0864 2.306C37.3711 2.79133 37.5134 3.33267 37.5134 3.93C37.5134 4.35 37.4621 4.721 37.3594 5.043C37.2614 5.36033 37.1051 5.65667 36.8904 5.932C36.6804 6.20267 36.4121 6.48267 36.0854 6.772L32.0394 10.426L31.8784 10.006H37.5134V10.993H30.9334ZM43.3623 11V9.047H38.6443V8.067L42.0183 0.92H43.1733L39.7993 8.067H43.3623V5.127H44.3983V8.067H45.4973V9.047H44.3983V11H43.3623ZM53.4849 11.21C52.7802 11.21 52.1455 11.0933 51.5809 10.86C51.0209 10.622 50.5565 10.286 50.1879 9.852C49.8239 9.418 49.5859 8.90233 49.4739 8.305L50.5239 8.13C50.6919 8.78333 51.0465 9.29667 51.5879 9.67C52.1292 10.0387 52.7755 10.223 53.5269 10.223C54.0215 10.223 54.4649 10.146 54.8569 9.992C55.2489 9.83333 55.5569 9.60933 55.7809 9.32C56.0049 9.03067 56.1169 8.68767 56.1169 8.291C56.1169 8.02967 56.0702 7.808 55.9769 7.626C55.8835 7.43933 55.7599 7.28533 55.6059 7.164C55.4519 7.04267 55.2839 6.94233 55.1019 6.863C54.9199 6.779 54.7425 6.71133 54.5699 6.66L52.0149 5.897C51.7069 5.80833 51.4222 5.69633 51.1609 5.561C50.8995 5.421 50.6709 5.25533 50.4749 5.064C50.2835 4.868 50.1342 4.63933 50.0269 4.378C49.9195 4.11667 49.8659 3.818 49.8659 3.482C49.8659 2.91267 50.0152 2.42033 50.3139 2.005C50.6125 1.58967 51.0209 1.27 51.5389 1.046C52.0569 0.822 52.6472 0.712333 53.3099 0.716999C53.9819 0.716999 54.5815 0.835999 55.1089 1.074C55.6409 1.312 56.0795 1.65267 56.4249 2.096C56.7702 2.53467 56.9989 3.055 57.1109 3.657L56.0329 3.853C55.9629 3.41433 55.8019 3.034 55.5499 2.712C55.2979 2.39 54.9759 2.14267 54.5839 1.97C54.1965 1.79267 53.7695 1.70167 53.3029 1.697C52.8502 1.697 52.4465 1.774 52.0919 1.928C51.7419 2.07733 51.4642 2.28267 51.2589 2.544C51.0535 2.80533 50.9509 3.104 50.9509 3.44C50.9509 3.78067 51.0442 4.05367 51.2309 4.259C51.4222 4.46433 51.6555 4.62533 51.9309 4.742C52.2109 4.85867 52.4815 4.95433 52.7429 5.029L54.7169 5.61C54.9222 5.666 55.1625 5.74767 55.4379 5.855C55.7179 5.95767 55.9885 6.107 56.2499 6.303C56.5159 6.49433 56.7352 6.74633 56.9079 7.059C57.0805 7.37167 57.1669 7.76833 57.1669 8.249C57.1669 8.71567 57.0735 9.13333 56.8869 9.502C56.7049 9.87067 56.4459 10.181 56.1099 10.433C55.7786 10.685 55.3889 10.8763 54.9409 11.007C54.4975 11.1423 54.0122 11.21 53.4849 11.21ZM58.7518 2.005V0.85H59.7808V2.005H58.7518ZM58.7518 11V3.44H59.7808V11H58.7518ZM62.0194 11V0.71H63.0484V11H62.0194ZM65.287 2.005V0.85H66.316V2.005H65.287ZM65.287 11V3.44H66.316V11H65.287ZM71.5506 11.21C70.7899 11.21 70.1459 11.0397 69.6186 10.699C69.0912 10.3583 68.6899 9.88933 68.4146 9.292C68.1439 8.69 68.0039 7.99933 67.9946 7.22C68.0039 6.42667 68.1486 5.73133 68.4286 5.134C68.7086 4.532 69.1122 4.06533 69.6396 3.734C70.1669 3.398 70.8062 3.23 71.5576 3.23C72.3229 3.23 72.9879 3.41667 73.5526 3.79C74.1219 4.16333 74.5116 4.67433 74.7216 5.323L73.7136 5.645C73.5362 5.19233 73.2539 4.84233 72.8666 4.595C72.4839 4.343 72.0452 4.217 71.5506 4.217C70.9952 4.217 70.5356 4.34533 70.1716 4.602C69.8076 4.854 69.5369 5.20633 69.3596 5.659C69.1822 6.11167 69.0912 6.632 69.0866 7.22C69.0959 8.12533 69.3059 8.85333 69.7166 9.404C70.1272 9.95 70.7386 10.223 71.5506 10.223C72.0639 10.223 72.5002 10.1063 72.8596 9.873C73.2236 9.635 73.4989 9.28967 73.6856 8.837L74.7216 9.145C74.4416 9.817 74.0309 10.3303 73.4896 10.685C72.9482 11.035 72.3019 11.21 71.5506 11.21ZM79.1184 11.21C78.3671 11.21 77.7254 11.0397 77.1934 10.699C76.6614 10.3583 76.2531 9.887 75.9684 9.285C75.6838 8.683 75.5414 7.99233 75.5414 7.213C75.5414 6.41967 75.6861 5.72433 75.9754 5.127C76.2648 4.52967 76.6754 4.06533 77.2074 3.734C77.7441 3.398 78.3811 3.23 79.1184 3.23C79.8744 3.23 80.5184 3.40033 81.0504 3.741C81.5871 4.077 81.9954 4.546 82.2754 5.148C82.5601 5.74533 82.7024 6.43367 82.7024 7.213C82.7024 8.00633 82.5601 8.704 82.2754 9.306C81.9908 9.90333 81.5801 10.37 81.0434 10.706C80.5068 11.042 79.8651 11.21 79.1184 11.21ZM79.1184 10.223C79.9584 10.223 80.5838 9.94533 80.9944 9.39C81.4051 8.83 81.6104 8.10433 81.6104 7.213C81.6104 6.29833 81.4028 5.57033 80.9874 5.029C80.5768 4.48767 79.9538 4.217 79.1184 4.217C78.5538 4.217 78.0871 4.34533 77.7184 4.602C77.3544 4.854 77.0814 5.20633 76.8994 5.659C76.7221 6.107 76.6334 6.625 76.6334 7.213C76.6334 8.123 76.8434 8.85333 77.2634 9.404C77.6834 9.95 78.3018 10.223 79.1184 10.223ZM89.7066 11V7.143C89.7066 6.723 89.6669 6.338 89.5876 5.988C89.5083 5.63333 89.3799 5.32533 89.2026 5.064C89.0299 4.798 88.8036 4.59267 88.5236 4.448C88.2483 4.30333 87.9123 4.231 87.5156 4.231C87.1516 4.231 86.8296 4.294 86.5496 4.42C86.2743 4.546 86.0409 4.728 85.8496 4.966C85.6629 5.19933 85.5206 5.484 85.4226 5.82C85.3246 6.156 85.2756 6.53867 85.2756 6.968L84.5476 6.807C84.5476 6.03233 84.6829 5.38133 84.9536 4.854C85.2243 4.32667 85.5976 3.92767 86.0736 3.657C86.5496 3.38633 87.0956 3.251 87.7116 3.251C88.1643 3.251 88.5586 3.321 88.8946 3.461C89.2353 3.601 89.5223 3.79 89.7556 4.028C89.9936 4.266 90.1849 4.539 90.3296 4.847C90.4743 5.15033 90.5793 5.47467 90.6446 5.82C90.7099 6.16067 90.7426 6.50133 90.7426 6.842V11H89.7066ZM84.2396 11V3.44H85.1706V5.302H85.2756V11H84.2396ZM92.7551 11V9.803H93.9521V11H92.7551ZM98.2165 11L101.689 0.92H103.054L106.526 11H105.455L102.158 1.494H102.564L99.2875 11H98.2165ZM99.7635 8.557V7.591H104.972V8.557H99.7635ZM107.93 11V0.71H108.959V11H107.93ZM111.197 11V0.71H112.226V11H111.197ZM117.127 11V3.44H118.051V5.26L117.869 5.022C117.953 4.798 118.063 4.59267 118.198 4.406C118.334 4.21467 118.481 4.05833 118.639 3.937C118.835 3.76433 119.064 3.63367 119.325 3.545C119.587 3.45167 119.85 3.398 120.116 3.384C120.382 3.36533 120.625 3.384 120.844 3.44V4.406C120.569 4.336 120.268 4.31967 119.941 4.357C119.615 4.39433 119.314 4.525 119.038 4.749C118.786 4.945 118.597 5.18067 118.471 5.456C118.345 5.72667 118.261 6.016 118.219 6.324C118.177 6.62733 118.156 6.92833 118.156 7.227V11H117.127ZM122.312 2.005V0.85H123.341V2.005H122.312ZM122.312 11V3.44H123.341V11H122.312ZM128.443 14.57C128.056 14.57 127.673 14.5117 127.295 14.395C126.922 14.283 126.576 14.1033 126.259 13.856C125.942 13.6133 125.676 13.296 125.461 12.904L126.392 12.386C126.602 12.806 126.896 13.107 127.274 13.289C127.657 13.4757 128.046 13.569 128.443 13.569C128.989 13.569 129.43 13.4663 129.766 13.261C130.107 13.0603 130.354 12.7617 130.508 12.365C130.662 11.9683 130.737 11.4737 130.732 10.881V8.865H130.851V3.44H131.768V10.895C131.768 11.1097 131.761 11.315 131.747 11.511C131.738 11.7117 131.717 11.9077 131.684 12.099C131.595 12.6637 131.411 13.128 131.131 13.492C130.856 13.856 130.492 14.1267 130.039 14.304C129.591 14.4813 129.059 14.57 128.443 14.57ZM128.373 11.21C127.668 11.21 127.066 11.035 126.567 10.685C126.068 10.3303 125.685 9.852 125.419 9.25C125.153 8.648 125.02 7.969 125.02 7.213C125.02 6.46167 125.151 5.785 125.412 5.183C125.678 4.581 126.058 4.105 126.553 3.755C127.048 3.405 127.64 3.23 128.331 3.23C129.04 3.23 129.638 3.40267 130.123 3.748C130.608 4.09333 130.975 4.567 131.222 5.169C131.474 5.76633 131.6 6.44767 131.6 7.213C131.6 7.96433 131.476 8.64333 131.229 9.25C130.982 9.852 130.618 10.3303 130.137 10.685C129.656 11.035 129.068 11.21 128.373 11.21ZM128.478 10.251C129.015 10.251 129.458 10.1203 129.808 9.859C130.158 9.59767 130.419 9.23833 130.592 8.781C130.765 8.319 130.851 7.79633 130.851 7.213C130.851 6.62033 130.765 6.09767 130.592 5.645C130.419 5.18767 130.158 4.83067 129.808 4.574C129.463 4.31733 129.026 4.189 128.499 4.189C127.958 4.189 127.51 4.322 127.155 4.588C126.8 4.854 126.537 5.21567 126.364 5.673C126.196 6.13033 126.112 6.64367 126.112 7.213C126.112 7.787 126.198 8.305 126.371 8.767C126.548 9.22433 126.812 9.586 127.162 9.852C127.512 10.118 127.951 10.251 128.478 10.251ZM139.185 11V7.143C139.185 6.723 139.145 6.338 139.066 5.988C138.987 5.63333 138.858 5.32533 138.681 5.064C138.508 4.798 138.282 4.59267 138.002 4.448C137.727 4.30333 137.391 4.231 136.994 4.231C136.63 4.231 136.308 4.294 136.028 4.42C135.753 4.546 135.519 4.728 135.328 4.966C135.141 5.19933 134.999 5.484 134.901 5.82C134.803 6.156 134.754 6.53867 134.754 6.968L134.026 6.807C134.026 6.03233 134.161 5.38133 134.432 4.854C134.703 4.32667 135.076 3.92767 135.552 3.657C136.028 3.38633 136.574 3.251 137.19 3.251C137.643 3.251 138.037 3.321 138.373 3.461C138.714 3.601 139.001 3.79 139.234 4.028C139.472 4.266 139.663 4.539 139.808 4.847C139.953 5.15033 140.058 5.47467 140.123 5.82C140.188 6.16067 140.221 6.50133 140.221 6.842V11H139.185ZM133.718 11V0.92H134.649V6.611H134.754V11H133.718ZM146.154 11C145.729 11.0887 145.309 11.1237 144.894 11.105C144.483 11.0863 144.114 10.9977 143.788 10.839C143.466 10.6803 143.221 10.433 143.053 10.097C142.917 9.817 142.843 9.53467 142.829 9.25C142.819 8.96067 142.815 8.63167 142.815 8.263V1.34H143.837V8.221C143.837 8.53833 143.839 8.80433 143.844 9.019C143.853 9.229 143.902 9.41567 143.991 9.579C144.159 9.89167 144.425 10.0783 144.789 10.139C145.157 10.1997 145.612 10.1857 146.154 10.097V11ZM141.198 4.322V3.44H146.154V4.322H141.198ZM150.464 11.203C149.577 11.203 148.847 11.0117 148.273 10.629C147.704 10.2463 147.354 9.71433 147.223 9.033L148.273 8.858C148.385 9.28733 148.639 9.63033 149.036 9.887C149.437 10.139 149.932 10.265 150.52 10.265C151.094 10.265 151.547 10.146 151.878 9.908C152.209 9.66533 152.375 9.33633 152.375 8.921C152.375 8.68767 152.321 8.49867 152.214 8.354C152.111 8.20467 151.899 8.067 151.577 7.941C151.255 7.815 150.774 7.66567 150.135 7.493C149.449 7.30633 148.912 7.11967 148.525 6.933C148.138 6.74633 147.862 6.53167 147.699 6.289C147.536 6.04167 147.454 5.74067 147.454 5.386C147.454 4.95667 147.575 4.581 147.818 4.259C148.061 3.93233 148.397 3.68033 148.826 3.503C149.255 3.321 149.755 3.23 150.324 3.23C150.893 3.23 151.402 3.32333 151.85 3.51C152.303 3.692 152.667 3.94867 152.942 4.28C153.217 4.61133 153.381 4.99633 153.432 5.435L152.382 5.624C152.312 5.18067 152.09 4.83067 151.717 4.574C151.348 4.31267 150.879 4.17733 150.31 4.168C149.773 4.154 149.337 4.25667 149.001 4.476C148.665 4.69067 148.497 4.97767 148.497 5.337C148.497 5.53767 148.558 5.71033 148.679 5.855C148.8 5.995 149.02 6.128 149.337 6.254C149.659 6.38 150.116 6.51767 150.709 6.667C151.404 6.84433 151.95 7.031 152.347 7.227C152.744 7.423 153.026 7.654 153.194 7.92C153.362 8.186 153.446 8.515 153.446 8.907C153.446 9.621 153.18 10.1833 152.648 10.594C152.121 11 151.393 11.203 150.464 11.203ZM157.801 11V3.44H158.725V5.26L158.543 5.022C158.627 4.798 158.737 4.59267 158.872 4.406C159.008 4.21467 159.155 4.05833 159.313 3.937C159.509 3.76433 159.738 3.63367 159.999 3.545C160.261 3.45167 160.524 3.398 160.79 3.384C161.056 3.36533 161.299 3.384 161.518 3.44V4.406C161.243 4.336 160.942 4.31967 160.615 4.357C160.289 4.39433 159.988 4.525 159.712 4.749C159.46 4.945 159.271 5.18067 159.145 5.456C159.019 5.72667 158.935 6.016 158.893 6.324C158.851 6.62733 158.83 6.92833 158.83 7.227V11H157.801ZM165.908 11.21C165.171 11.21 164.532 11.0467 163.99 10.72C163.454 10.3933 163.036 9.93367 162.737 9.341C162.439 8.74833 162.289 8.053 162.289 7.255C162.289 6.429 162.436 5.715 162.73 5.113C163.024 4.511 163.437 4.04667 163.969 3.72C164.506 3.39333 165.138 3.23 165.866 3.23C166.613 3.23 167.25 3.40267 167.777 3.748C168.305 4.08867 168.704 4.57867 168.974 5.218C169.245 5.85733 169.369 6.62033 169.345 7.507H168.295V7.143C168.277 6.163 168.064 5.42333 167.658 4.924C167.257 4.42467 166.669 4.175 165.894 4.175C165.082 4.175 164.459 4.43867 164.025 4.966C163.596 5.49333 163.381 6.24467 163.381 7.22C163.381 8.172 163.596 8.91167 164.025 9.439C164.459 9.96167 165.073 10.223 165.866 10.223C166.408 10.223 166.879 10.0993 167.28 9.852C167.686 9.6 168.006 9.23833 168.239 8.767L169.198 9.138C168.9 9.796 168.459 10.307 167.875 10.671C167.297 11.0303 166.641 11.21 165.908 11.21ZM163.017 7.507V6.646H168.792V7.507H163.017ZM173.72 11.203C172.833 11.203 172.103 11.0117 171.529 10.629C170.96 10.2463 170.61 9.71433 170.479 9.033L171.529 8.858C171.641 9.28733 171.895 9.63033 172.292 9.887C172.693 10.139 173.188 10.265 173.776 10.265C174.35 10.265 174.803 10.146 175.134 9.908C175.465 9.66533 175.631 9.33633 175.631 8.921C175.631 8.68767 175.577 8.49867 175.47 8.354C175.367 8.20467 175.155 8.067 174.833 7.941C174.511 7.815 174.03 7.66567 173.391 7.493C172.705 7.30633 172.168 7.11967 171.781 6.933C171.394 6.74633 171.118 6.53167 170.955 6.289C170.792 6.04167 170.71 5.74067 170.71 5.386C170.71 4.95667 170.831 4.581 171.074 4.259C171.317 3.93233 171.653 3.68033 172.082 3.503C172.511 3.321 173.011 3.23 173.58 3.23C174.149 3.23 174.658 3.32333 175.106 3.51C175.559 3.692 175.923 3.94867 176.198 4.28C176.473 4.61133 176.637 4.99633 176.688 5.435L175.638 5.624C175.568 5.18067 175.346 4.83067 174.973 4.574C174.604 4.31267 174.135 4.17733 173.566 4.168C173.029 4.154 172.593 4.25667 172.257 4.476C171.921 4.69067 171.753 4.97767 171.753 5.337C171.753 5.53767 171.814 5.71033 171.935 5.855C172.056 5.995 172.276 6.128 172.593 6.254C172.915 6.38 173.372 6.51767 173.965 6.667C174.66 6.84433 175.206 7.031 175.603 7.227C176 7.423 176.282 7.654 176.45 7.92C176.618 8.186 176.702 8.515 176.702 8.907C176.702 9.621 176.436 10.1833 175.904 10.594C175.377 11 174.649 11.203 173.72 11.203ZM181.453 11.21C180.716 11.21 180.077 11.0467 179.535 10.72C178.999 10.3933 178.581 9.93367 178.282 9.341C177.984 8.74833 177.834 8.053 177.834 7.255C177.834 6.429 177.981 5.715 178.275 5.113C178.569 4.511 178.982 4.04667 179.514 3.72C180.051 3.39333 180.683 3.23 181.411 3.23C182.158 3.23 182.795 3.40267 183.322 3.748C183.85 4.08867 184.249 4.57867 184.519 5.218C184.79 5.85733 184.914 6.62033 184.89 7.507H183.84V7.143C183.822 6.163 183.609 5.42333 183.203 4.924C182.802 4.42467 182.214 4.175 181.439 4.175C180.627 4.175 180.004 4.43867 179.57 4.966C179.141 5.49333 178.926 6.24467 178.926 7.22C178.926 8.172 179.141 8.91167 179.57 9.439C180.004 9.96167 180.618 10.223 181.411 10.223C181.953 10.223 182.424 10.0993 182.825 9.852C183.231 9.6 183.551 9.23833 183.784 8.767L184.743 9.138C184.445 9.796 184.004 10.307 183.42 10.671C182.842 11.0303 182.186 11.21 181.453 11.21ZM178.562 7.507V6.646H184.337V7.507H178.562ZM186.444 11V3.44H187.368V5.26L187.186 5.022C187.27 4.798 187.38 4.59267 187.515 4.406C187.65 4.21467 187.797 4.05833 187.956 3.937C188.152 3.76433 188.381 3.63367 188.642 3.545C188.903 3.45167 189.167 3.398 189.433 3.384C189.699 3.36533 189.942 3.384 190.161 3.44V4.406C189.886 4.336 189.585 4.31967 189.258 4.357C188.931 4.39433 188.63 4.525 188.355 4.749C188.103 4.945 187.914 5.18067 187.788 5.456C187.662 5.72667 187.578 6.016 187.536 6.324C187.494 6.62733 187.473 6.92833 187.473 7.227V11H186.444ZM193.533 11L190.789 3.44H191.832L194.065 9.656L196.284 3.44H197.341L194.597 11H193.533ZM201.524 11.21C200.786 11.21 200.147 11.0467 199.606 10.72C199.069 10.3933 198.651 9.93367 198.353 9.341C198.054 8.74833 197.905 8.053 197.905 7.255C197.905 6.429 198.052 5.715 198.346 5.113C198.64 4.511 199.053 4.04667 199.585 3.72C200.121 3.39333 200.754 3.23 201.482 3.23C202.228 3.23 202.865 3.40267 203.393 3.748C203.92 4.08867 204.319 4.57867 204.59 5.218C204.86 5.85733 204.984 6.62033 204.961 7.507H203.911V7.143C203.892 6.163 203.68 5.42333 203.274 4.924C202.872 4.42467 202.284 4.175 201.51 4.175C200.698 4.175 200.075 4.43867 199.641 4.966C199.211 5.49333 198.997 6.24467 198.997 7.22C198.997 8.172 199.211 8.91167 199.641 9.439C200.075 9.96167 200.688 10.223 201.482 10.223C202.023 10.223 202.494 10.0993 202.896 9.852C203.302 9.6 203.621 9.23833 203.855 8.767L204.814 9.138C204.515 9.796 204.074 10.307 203.491 10.671C202.912 11.0303 202.256 11.21 201.524 11.21ZM198.633 7.507V6.646H204.408V7.507H198.633ZM209.447 11.21C208.743 11.21 208.141 11.035 207.641 10.685C207.142 10.3303 206.759 9.852 206.493 9.25C206.227 8.648 206.094 7.969 206.094 7.213C206.094 6.46167 206.225 5.785 206.486 5.183C206.752 4.581 207.133 4.105 207.627 3.755C208.122 3.405 208.715 3.23 209.405 3.23C210.115 3.23 210.712 3.40267 211.197 3.748C211.683 4.09333 212.049 4.567 212.296 5.169C212.548 5.76633 212.674 6.44767 212.674 7.213C212.674 7.96433 212.551 8.64333 212.303 9.25C212.056 9.852 211.692 10.3303 211.211 10.685C210.731 11.035 210.143 11.21 209.447 11.21ZM209.552 10.251C210.089 10.251 210.532 10.1203 210.882 9.859C211.232 9.59767 211.494 9.23833 211.666 8.781C211.839 8.319 211.925 7.79633 211.925 7.213C211.925 6.62033 211.839 6.09767 211.666 5.645C211.494 5.18767 211.232 4.83067 210.882 4.574C210.537 4.31733 210.101 4.189 209.573 4.189C209.032 4.189 208.584 4.322 208.229 4.588C207.875 4.854 207.611 5.21567 207.438 5.673C207.27 6.13033 207.186 6.64367 207.186 7.213C207.186 7.787 207.273 8.305 207.445 8.767C207.623 9.22433 207.886 9.586 208.236 9.852C208.586 10.118 209.025 10.251 209.552 10.251ZM211.925 11V5.309H211.813V0.92H212.849V11H211.925ZM215.009 11V9.803H216.206V11H215.009ZM225.251 11.21C224.248 11.21 223.401 10.9883 222.71 10.545C222.02 10.097 221.497 9.47867 221.142 8.69C220.788 7.90133 220.61 6.99133 220.61 5.96C220.61 4.92867 220.788 4.01867 221.142 3.23C221.497 2.44133 222.02 1.82533 222.71 1.382C223.401 0.934 224.248 0.71 225.251 0.71C226.423 0.71 227.379 1.011 228.121 1.613C228.863 2.21033 229.372 3.013 229.647 4.021L228.597 4.294C228.383 3.496 227.998 2.86367 227.442 2.397C226.887 1.93033 226.157 1.697 225.251 1.697C224.463 1.697 223.807 1.87667 223.284 2.236C222.762 2.59533 222.367 3.097 222.101 3.741C221.84 4.38033 221.705 5.12 221.695 5.96C221.691 6.8 221.819 7.53967 222.08 8.179C222.346 8.81833 222.743 9.32 223.27 9.684C223.802 10.0433 224.463 10.223 225.251 10.223C226.157 10.223 226.887 9.98967 227.442 9.523C227.998 9.05167 228.383 8.41933 228.597 7.626L229.647 7.899C229.372 8.907 228.863 9.712 228.121 10.314C227.379 10.9113 226.423 11.21 225.251 11.21ZM231.192 11V3.44H232.116V5.26L231.934 5.022C232.018 4.798 232.128 4.59267 232.263 4.406C232.398 4.21467 232.545 4.05833 232.704 3.937C232.9 3.76433 233.129 3.63367 233.39 3.545C233.651 3.45167 233.915 3.398 234.181 3.384C234.447 3.36533 234.69 3.384 234.909 3.44V4.406C234.634 4.336 234.333 4.31967 234.006 4.357C233.679 4.39433 233.378 4.525 233.103 4.749C232.851 4.945 232.662 5.18067 232.536 5.456C232.41 5.72667 232.326 6.016 232.284 6.324C232.242 6.62733 232.221 6.92833 232.221 7.227V11H231.192ZM239.299 11.21C238.562 11.21 237.922 11.0467 237.381 10.72C236.844 10.3933 236.427 9.93367 236.128 9.341C235.829 8.74833 235.68 8.053 235.68 7.255C235.68 6.429 235.827 5.715 236.121 5.113C236.415 4.511 236.828 4.04667 237.36 3.72C237.897 3.39333 238.529 3.23 239.257 3.23C240.004 3.23 240.641 3.40267 241.168 3.748C241.695 4.08867 242.094 4.57867 242.365 5.218C242.636 5.85733 242.759 6.62033 242.736 7.507H241.686V7.143C241.667 6.163 241.455 5.42333 241.049 4.924C240.648 4.42467 240.06 4.175 239.285 4.175C238.473 4.175 237.85 4.43867 237.416 4.966C236.987 5.49333 236.772 6.24467 236.772 7.22C236.772 8.172 236.987 8.91167 237.416 9.439C237.85 9.96167 238.464 10.223 239.257 10.223C239.798 10.223 240.27 10.0993 240.671 9.852C241.077 9.6 241.397 9.23833 241.63 8.767L242.589 9.138C242.29 9.796 241.849 10.307 241.266 10.671C240.687 11.0303 240.032 11.21 239.299 11.21ZM236.408 7.507V6.646H242.183V7.507H236.408ZM247.223 11.21C246.518 11.21 245.916 11.035 245.417 10.685C244.917 10.3303 244.535 9.852 244.269 9.25C244.003 8.648 243.87 7.969 243.87 7.213C243.87 6.46167 244 5.785 244.262 5.183C244.528 4.581 244.908 4.105 245.403 3.755C245.897 3.405 246.49 3.23 247.181 3.23C247.89 3.23 248.487 3.40267 248.973 3.748C249.458 4.09333 249.824 4.567 250.072 5.169C250.324 5.76633 250.45 6.44767 250.45 7.213C250.45 7.96433 250.326 8.64333 250.079 9.25C249.831 9.852 249.467 10.3303 248.987 10.685C248.506 11.035 247.918 11.21 247.223 11.21ZM247.328 10.251C247.864 10.251 248.308 10.1203 248.658 9.859C249.008 9.59767 249.269 9.23833 249.442 8.781C249.614 8.319 249.701 7.79633 249.701 7.213C249.701 6.62033 249.614 6.09767 249.442 5.645C249.269 5.18767 249.008 4.83067 248.658 4.574C248.312 4.31733 247.876 4.189 247.349 4.189C246.807 4.189 246.359 4.322 246.005 4.588C245.65 4.854 245.386 5.21567 245.214 5.673C245.046 6.13033 244.962 6.64367 244.962 7.213C244.962 7.787 245.048 8.305 245.221 8.767C245.398 9.22433 245.662 9.586 246.012 9.852C246.362 10.118 246.8 10.251 247.328 10.251ZM249.701 11V5.309H249.589V0.92H250.625V11H249.701ZM252.728 2.005V0.85H253.757V2.005H252.728ZM252.728 11V3.44H253.757V11H252.728ZM259.972 11C259.547 11.0887 259.127 11.1237 258.712 11.105C258.301 11.0863 257.933 10.9977 257.606 10.839C257.284 10.6803 257.039 10.433 256.871 10.097C256.736 9.817 256.661 9.53467 256.647 9.25C256.638 8.96067 256.633 8.63167 256.633 8.263V1.34H257.655V8.221C257.655 8.53833 257.657 8.80433 257.662 9.019C257.671 9.229 257.72 9.41567 257.809 9.579C257.977 9.89167 258.243 10.0783 258.607 10.139C258.976 10.1997 259.431 10.1857 259.972 10.097V11ZM255.016 4.322V3.44H259.972V4.322H255.016ZM264.264 11V0.92H265.209L269.171 9.397L273.112 0.92H274.071V10.993H273.091V3.216L269.5 11H268.835L265.251 3.216V11H264.264ZM278.199 11.21C277.629 11.21 277.151 11.1073 276.764 10.902C276.381 10.6967 276.094 10.4237 275.903 10.083C275.711 9.74233 275.616 9.37133 275.616 8.97C275.616 8.55933 275.697 8.20933 275.861 7.92C276.029 7.626 276.255 7.38567 276.54 7.199C276.829 7.01233 277.163 6.87 277.541 6.772C277.923 6.67867 278.346 6.597 278.808 6.527C279.274 6.45233 279.729 6.38933 280.173 6.338C280.621 6.282 281.013 6.22833 281.349 6.177L280.985 6.401C280.999 5.65433 280.854 5.10133 280.551 4.742C280.247 4.38267 279.72 4.203 278.969 4.203C278.451 4.203 278.012 4.31967 277.653 4.553C277.298 4.78633 277.048 5.155 276.904 5.659L275.903 5.365C276.075 4.68833 276.423 4.16333 276.946 3.79C277.468 3.41667 278.147 3.23 278.983 3.23C279.673 3.23 280.259 3.36067 280.74 3.622C281.225 3.87867 281.568 4.252 281.769 4.742C281.862 4.96133 281.923 5.20633 281.951 5.477C281.979 5.74767 281.993 6.023 281.993 6.303V11H281.076V9.103L281.342 9.215C281.085 9.86367 280.686 10.3583 280.145 10.699C279.603 11.0397 278.955 11.21 278.199 11.21ZM278.318 10.321C278.798 10.321 279.218 10.2347 279.578 10.062C279.937 9.88933 280.226 9.65367 280.446 9.355C280.665 9.05167 280.807 8.711 280.873 8.333C280.929 8.09033 280.959 7.82433 280.964 7.535C280.968 7.241 280.971 7.02167 280.971 6.877L281.363 7.08C281.013 7.12667 280.632 7.17333 280.222 7.22C279.816 7.26667 279.414 7.32033 279.018 7.381C278.626 7.44167 278.271 7.514 277.954 7.598C277.739 7.65867 277.531 7.745 277.331 7.857C277.13 7.96433 276.964 8.109 276.834 8.291C276.708 8.473 276.645 8.69933 276.645 8.97C276.645 9.18933 276.698 9.40167 276.806 9.607C276.918 9.81233 277.095 9.98267 277.338 10.118C277.585 10.2533 277.912 10.321 278.318 10.321ZM286.748 11.21C286.043 11.21 285.441 11.035 284.942 10.685C284.443 10.3303 284.06 9.852 283.794 9.25C283.528 8.648 283.395 7.969 283.395 7.213C283.395 6.46167 283.526 5.785 283.787 5.183C284.053 4.581 284.433 4.105 284.928 3.755C285.423 3.405 286.015 3.23 286.706 3.23C287.415 3.23 288.013 3.40267 288.498 3.748C288.983 4.09333 289.35 4.567 289.597 5.169C289.849 5.76633 289.975 6.44767 289.975 7.213C289.975 7.96433 289.851 8.64333 289.604 9.25C289.357 9.852 288.993 10.3303 288.512 10.685C288.031 11.035 287.443 11.21 286.748 11.21ZM286.853 10.251C287.39 10.251 287.833 10.1203 288.183 9.859C288.533 9.59767 288.794 9.23833 288.967 8.781C289.14 8.319 289.226 7.79633 289.226 7.213C289.226 6.62033 289.14 6.09767 288.967 5.645C288.794 5.18767 288.533 4.83067 288.183 4.574C287.838 4.31733 287.401 4.189 286.874 4.189C286.333 4.189 285.885 4.322 285.53 4.588C285.175 4.854 284.912 5.21567 284.739 5.673C284.571 6.13033 284.487 6.64367 284.487 7.213C284.487 7.787 284.573 8.305 284.746 8.767C284.923 9.22433 285.187 9.586 285.537 9.852C285.887 10.118 286.326 10.251 286.853 10.251ZM289.226 11V5.309H289.114V0.92H290.15V11H289.226ZM292.114 11V3.44H293.038V5.26L292.856 5.022C292.94 4.798 293.049 4.59267 293.185 4.406C293.32 4.21467 293.467 4.05833 293.626 3.937C293.822 3.76433 294.05 3.63367 294.312 3.545C294.573 3.45167 294.837 3.398 295.103 3.384C295.369 3.36533 295.611 3.384 295.831 3.44V4.406C295.555 4.336 295.254 4.31967 294.928 4.357C294.601 4.39433 294.3 4.525 294.025 4.749C293.773 4.945 293.584 5.18067 293.458 5.456C293.332 5.72667 293.248 6.016 293.206 6.324C293.164 6.62733 293.143 6.92833 293.143 7.227V11H292.114ZM299.035 11.21C298.465 11.21 297.987 11.1073 297.6 10.902C297.217 10.6967 296.93 10.4237 296.739 10.083C296.547 9.74233 296.452 9.37133 296.452 8.97C296.452 8.55933 296.533 8.20933 296.697 7.92C296.865 7.626 297.091 7.38567 297.376 7.199C297.665 7.01233 297.999 6.87 298.377 6.772C298.759 6.67867 299.182 6.597 299.644 6.527C300.11 6.45233 300.565 6.38933 301.009 6.338C301.457 6.282 301.849 6.22833 302.185 6.177L301.821 6.401C301.835 5.65433 301.69 5.10133 301.387 4.742C301.083 4.38267 300.556 4.203 299.805 4.203C299.287 4.203 298.848 4.31967 298.489 4.553C298.134 4.78633 297.884 5.155 297.74 5.659L296.739 5.365C296.911 4.68833 297.259 4.16333 297.782 3.79C298.304 3.41667 298.983 3.23 299.819 3.23C300.509 3.23 301.095 3.36067 301.576 3.622C302.061 3.87867 302.404 4.252 302.605 4.742C302.698 4.96133 302.759 5.20633 302.787 5.477C302.815 5.74767 302.829 6.023 302.829 6.303V11H301.912V9.103L302.178 9.215C301.921 9.86367 301.522 10.3583 300.981 10.699C300.439 11.0397 299.791 11.21 299.035 11.21ZM299.154 10.321C299.634 10.321 300.054 10.2347 300.414 10.062C300.773 9.88933 301.062 9.65367 301.282 9.355C301.501 9.05167 301.643 8.711 301.709 8.333C301.765 8.09033 301.795 7.82433 301.8 7.535C301.804 7.241 301.807 7.02167 301.807 6.877L302.199 7.08C301.849 7.12667 301.468 7.17333 301.058 7.22C300.652 7.26667 300.25 7.32033 299.854 7.381C299.462 7.44167 299.107 7.514 298.79 7.598C298.575 7.65867 298.367 7.745 298.167 7.857C297.966 7.96433 297.8 8.109 297.67 8.291C297.544 8.473 297.481 8.69933 297.481 8.97C297.481 9.18933 297.534 9.40167 297.642 9.607C297.754 9.81233 297.931 9.98267 298.174 10.118C298.421 10.2533 298.748 10.321 299.154 10.321ZM307.472 11.203C306.585 11.203 305.855 11.0117 305.281 10.629C304.712 10.2463 304.362 9.71433 304.231 9.033L305.281 8.858C305.393 9.28733 305.647 9.63033 306.044 9.887C306.445 10.139 306.94 10.265 307.528 10.265C308.102 10.265 308.555 10.146 308.886 9.908C309.217 9.66533 309.383 9.33633 309.383 8.921C309.383 8.68767 309.329 8.49867 309.222 8.354C309.119 8.20467 308.907 8.067 308.585 7.941C308.263 7.815 307.782 7.66567 307.143 7.493C306.457 7.30633 305.92 7.11967 305.533 6.933C305.146 6.74633 304.87 6.53167 304.707 6.289C304.544 6.04167 304.462 5.74067 304.462 5.386C304.462 4.95667 304.583 4.581 304.826 4.259C305.069 3.93233 305.405 3.68033 305.834 3.503C306.263 3.321 306.763 3.23 307.332 3.23C307.901 3.23 308.41 3.32333 308.858 3.51C309.311 3.692 309.675 3.94867 309.95 4.28C310.225 4.61133 310.389 4.99633 310.44 5.435L309.39 5.624C309.32 5.18067 309.098 4.83067 308.725 4.574C308.356 4.31267 307.887 4.17733 307.318 4.168C306.781 4.154 306.345 4.25667 306.009 4.476C305.673 4.69067 305.505 4.97767 305.505 5.337C305.505 5.53767 305.566 5.71033 305.687 5.855C305.808 5.995 306.028 6.128 306.345 6.254C306.667 6.38 307.124 6.51767 307.717 6.667C308.412 6.84433 308.958 7.031 309.355 7.227C309.752 7.423 310.034 7.654 310.202 7.92C310.37 8.186 310.454 8.515 310.454 8.907C310.454 9.621 310.188 10.1833 309.656 10.594C309.129 11 308.401 11.203 307.472 11.203ZM313.99 11V1.907H310.469V0.92H318.54V1.907H315.019V11H313.99ZM325.123 11V7.143C325.123 6.723 325.083 6.338 325.004 5.988C324.924 5.63333 324.796 5.32533 324.619 5.064C324.446 4.798 324.22 4.59267 323.94 4.448C323.664 4.30333 323.328 4.231 322.932 4.231C322.568 4.231 322.246 4.294 321.966 4.42C321.69 4.546 321.457 4.728 321.266 4.966C321.079 5.19933 320.937 5.484 320.839 5.82C320.741 6.156 320.692 6.53867 320.692 6.968L319.964 6.807C319.964 6.03233 320.099 5.38133 320.37 4.854C320.64 4.32667 321.014 3.92767 321.49 3.657C321.966 3.38633 322.512 3.251 323.128 3.251C323.58 3.251 323.975 3.321 324.311 3.461C324.651 3.601 324.938 3.79 325.172 4.028C325.41 4.266 325.601 4.539 325.746 4.847C325.89 5.15033 325.995 5.47467 326.061 5.82C326.126 6.16067 326.159 6.50133 326.159 6.842V11H325.123ZM319.656 11V0.92H320.587V6.611H320.692V11H319.656ZM331.174 11.21C330.437 11.21 329.797 11.0467 329.256 10.72C328.719 10.3933 328.302 9.93367 328.003 9.341C327.704 8.74833 327.555 8.053 327.555 7.255C327.555 6.429 327.702 5.715 327.996 5.113C328.29 4.511 328.703 4.04667 329.235 3.72C329.772 3.39333 330.404 3.23 331.132 3.23C331.879 3.23 332.516 3.40267 333.043 3.748C333.57 4.08867 333.969 4.57867 334.24 5.218C334.511 5.85733 334.634 6.62033 334.611 7.507H333.561V7.143C333.542 6.163 333.33 5.42333 332.924 4.924C332.523 4.42467 331.935 4.175 331.16 4.175C330.348 4.175 329.725 4.43867 329.291 4.966C328.862 5.49333 328.647 6.24467 328.647 7.22C328.647 8.172 328.862 8.91167 329.291 9.439C329.725 9.96167 330.339 10.223 331.132 10.223C331.673 10.223 332.145 10.0993 332.546 9.852C332.952 9.6 333.272 9.23833 333.505 8.767L334.464 9.138C334.165 9.796 333.724 10.307 333.141 10.671C332.562 11.0303 331.907 11.21 331.174 11.21ZM328.283 7.507V6.646H334.058V7.507H328.283ZM344.975 11L344.982 6.037C344.982 5.45367 344.819 4.99633 344.492 4.665C344.17 4.329 343.76 4.161 343.26 4.161C342.976 4.161 342.698 4.22633 342.427 4.357C342.157 4.48767 341.933 4.69767 341.755 4.987C341.583 5.27633 341.496 5.65433 341.496 6.121L340.887 5.946C340.873 5.40467 340.978 4.931 341.202 4.525C341.431 4.119 341.744 3.804 342.14 3.58C342.542 3.35133 342.994 3.237 343.498 3.237C344.259 3.237 344.868 3.47267 345.325 3.944C345.783 4.41067 346.011 5.043 346.011 5.841L346.004 11H344.975ZM335.952 11V3.44H336.876V5.302H336.988V11H335.952ZM340.474 11L340.481 6.107C340.481 5.505 340.32 5.03133 339.998 4.686C339.681 4.336 339.261 4.161 338.738 4.161C338.216 4.161 337.793 4.34067 337.471 4.7C337.149 5.05467 336.988 5.52833 336.988 6.121L336.372 5.785C336.372 5.29967 336.487 4.86567 336.715 4.483C336.944 4.09567 337.257 3.79233 337.653 3.573C338.05 3.349 338.5 3.237 339.004 3.237C339.485 3.237 339.912 3.33967 340.285 3.545C340.663 3.75033 340.96 4.049 341.174 4.441C341.389 4.833 341.496 5.309 341.496 5.869L341.489 11H340.474ZM350.985 11.21C350.247 11.21 349.608 11.0467 349.067 10.72C348.53 10.3933 348.112 9.93367 347.814 9.341C347.515 8.74833 347.366 8.053 347.366 7.255C347.366 6.429 347.513 5.715 347.807 5.113C348.101 4.511 348.514 4.04667 349.046 3.72C349.582 3.39333 350.215 3.23 350.943 3.23C351.689 3.23 352.326 3.40267 352.854 3.748C353.381 4.08867 353.78 4.57867 354.051 5.218C354.321 5.85733 354.445 6.62033 354.422 7.507H353.372V7.143C353.353 6.163 353.141 5.42333 352.735 4.924C352.333 4.42467 351.745 4.175 350.971 4.175C350.159 4.175 349.536 4.43867 349.102 4.966C348.672 5.49333 348.458 6.24467 348.458 7.22C348.458 8.172 348.672 8.91167 349.102 9.439C349.536 9.96167 350.149 10.223 350.943 10.223C351.484 10.223 351.955 10.0993 352.357 9.852C352.763 9.6 353.082 9.23833 353.316 8.767L354.275 9.138C353.976 9.796 353.535 10.307 352.952 10.671C352.373 11.0303 351.717 11.21 350.985 11.21ZM348.094 7.507V6.646H353.869V7.507H348.094ZM358.796 11.203C357.909 11.203 357.179 11.0117 356.605 10.629C356.036 10.2463 355.686 9.71433 355.555 9.033L356.605 8.858C356.717 9.28733 356.971 9.63033 357.368 9.887C357.769 10.139 358.264 10.265 358.852 10.265C359.426 10.265 359.879 10.146 360.21 9.908C360.541 9.66533 360.707 9.33633 360.707 8.921C360.707 8.68767 360.653 8.49867 360.546 8.354C360.443 8.20467 360.231 8.067 359.909 7.941C359.587 7.815 359.106 7.66567 358.467 7.493C357.781 7.30633 357.244 7.11967 356.857 6.933C356.47 6.74633 356.194 6.53167 356.031 6.289C355.868 6.04167 355.786 5.74067 355.786 5.386C355.786 4.95667 355.907 4.581 356.15 4.259C356.393 3.93233 356.729 3.68033 357.158 3.503C357.587 3.321 358.087 3.23 358.656 3.23C359.225 3.23 359.734 3.32333 360.182 3.51C360.635 3.692 360.999 3.94867 361.274 4.28C361.549 4.61133 361.713 4.99633 361.764 5.435L360.714 5.624C360.644 5.18067 360.422 4.83067 360.049 4.574C359.68 4.31267 359.211 4.17733 358.642 4.168C358.105 4.154 357.669 4.25667 357.333 4.476C356.997 4.69067 356.829 4.97767 356.829 5.337C356.829 5.53767 356.89 5.71033 357.011 5.855C357.132 5.995 357.352 6.128 357.669 6.254C357.991 6.38 358.448 6.51767 359.041 6.667C359.736 6.84433 360.282 7.031 360.679 7.227C361.076 7.423 361.358 7.654 361.526 7.92C361.694 8.186 361.778 8.515 361.778 8.907C361.778 9.621 361.512 10.1833 360.98 10.594C360.453 11 359.725 11.203 358.796 11.203Z" fill="#9397AD"/>
</svg>
